<svg width="32" height="32" viewBox="0 0 32 32" fill="none" xmlns="http://www.w3.org/2000/svg">
<path d="M17.4936 22.6974L11.895 19.6435C10.9218 20.6837 9.53677 21.3337 7.99996 21.3337C5.05444 21.3337 2.66663 18.9458 2.66663 16.0003C2.66663 13.0548 5.05444 10.667 7.99996 10.667C9.53669 10.667 10.9216 11.3169 11.8949 12.3569L17.4936 9.30316C17.3889 8.88621 17.3333 8.44975 17.3333 8.00033C17.3333 5.05481 19.7212 2.66699 22.6666 2.66699C25.6121 2.66699 28 5.05481 28 8.00033C28 10.9458 25.6121 13.3337 22.6666 13.3337C21.1298 13.3337 19.7449 12.6837 18.7716 11.6436L13.173 14.6974C13.2777 15.1143 13.3333 15.5509 13.3333 16.0003C13.3333 16.4498 13.2777 16.8862 13.173 17.3031L18.7717 20.357C19.7449 19.317 21.1298 18.667 22.6666 18.667C25.6121 18.667 28 21.0549 28 24.0003C28 26.9458 25.6121 29.3337 22.6666 29.3337C19.7212 29.3337 17.3333 26.9458 17.3333 24.0003C17.3333 23.5509 17.3889 23.1143 17.4936 22.6974ZM7.99996 18.667C9.47272 18.667 10.6666 17.4731 10.6666 16.0003C10.6666 14.5275 9.47272 13.3337 7.99996 13.3337C6.5272 13.3337 5.33329 14.5275 5.33329 16.0003C5.33329 17.4731 6.5272 18.667 7.99996 18.667ZM22.6666 10.667C24.1394 10.667 25.3333 9.47308 25.3333 8.00033C25.3333 6.52757 24.1394 5.33366 22.6666 5.33366C21.1938 5.33366 20 6.52757 20 8.00033C20 9.47308 21.1938 10.667 22.6666 10.667ZM22.6666 26.667C24.1394 26.667 25.3333 25.4731 25.3333 24.0003C25.3333 22.5275 24.1394 21.3337 22.6666 21.3337C21.1938 21.3337 20 22.5275 20 24.0003C20 25.4731 21.1938 26.667 22.6666 26.667Z" fill="#44BD32"/>
</svg>
