<svg width="56" height="58" viewBox="0 0 56 58" fill="none" xmlns="http://www.w3.org/2000/svg">
<path d="M49.1199 47.5067C25.3005 58.8427 10.518 49.3582 1.05525 43.5975C0.469696 43.2344 -0.525539 43.6824 0.337964 44.6742C3.49048 48.4967 13.822 57.71 27.3075 57.71C40.8024 57.71 48.8306 50.3466 49.8349 49.0621C50.8324 47.7885 50.1278 47.0859 49.1196 47.5067H49.1199ZM55.8095 43.8123C55.1698 42.9793 51.92 42.8241 49.8747 43.0753C47.8263 43.3193 44.7516 44.5712 45.019 45.3229C45.1561 45.6045 45.4361 45.4782 46.8433 45.3516C48.2543 45.2109 52.2072 44.712 53.0309 45.7887C53.8584 46.8729 51.7701 52.0376 51.3887 52.8706C51.0202 53.7035 51.5295 53.9183 52.2217 53.3635C52.9043 52.809 54.1402 51.3729 54.9695 49.3405C55.7932 47.2971 56.2956 44.4465 55.8095 43.8123Z" fill="#FF9900"/>
<path fill-rule="evenodd" clip-rule="evenodd" d="M33.1038 24.3754C33.1038 27.3498 33.1789 29.8303 31.6755 32.4718C30.4621 34.6195 28.54 35.9403 26.3924 35.9403C23.4608 35.9403 21.7535 33.7067 21.7535 30.4102C21.7535 23.9028 27.5841 22.7218 33.1038 22.7218V24.3754ZM40.8028 42.9845C40.2981 43.4354 39.5679 43.4678 38.9989 43.167C36.4647 41.0624 36.0136 40.0853 34.6178 38.0772C30.43 42.351 27.4662 43.6287 22.0328 43.6287C15.6114 43.6287 10.6074 39.6663 10.6074 31.7309C10.6074 25.5352 13.9686 21.315 18.7468 19.2535C22.8918 17.4278 28.6796 17.1057 33.1038 16.6012V15.6132C33.1038 13.7984 33.2432 11.6508 32.1803 10.0832C31.2459 8.67645 29.4635 8.09655 27.8956 8.09655C24.9857 8.09655 22.387 9.58907 21.7535 12.6816C21.6245 13.369 21.12 14.0456 20.4328 14.0777L13.0234 13.2832C12.4007 13.1433 11.7136 12.6388 11.8854 11.683C13.5927 2.70617 21.6996 0 28.9585 0C32.6739 0 37.5274 0.987992 40.459 3.80145C44.1745 7.26972 43.82 11.8978 43.82 16.9339V28.8317C43.82 32.4075 45.3019 33.9751 46.6978 35.9081C47.1916 36.5953 47.2991 37.4224 46.6763 37.9375C45.1192 39.2367 42.3488 41.653 40.8241 43.006L40.8026 42.9845" fill="#171717"/>
<path d="M49.1199 47.5067C25.3005 58.8427 10.518 49.3582 1.05525 43.5975C0.469696 43.2344 -0.525539 43.6824 0.337964 44.6742C3.49048 48.4967 13.822 57.71 27.3075 57.71C40.8024 57.71 48.8306 50.3466 49.8349 49.0621C50.8324 47.7885 50.1278 47.0859 49.1196 47.5067H49.1199ZM55.8095 43.8123C55.1698 42.9793 51.92 42.8241 49.8747 43.0753C47.8263 43.3193 44.7516 44.5712 45.019 45.3229C45.1561 45.6045 45.4361 45.4782 46.8433 45.3516C48.2543 45.2109 52.2072 44.712 53.0309 45.7887C53.8584 46.8729 51.7701 52.0376 51.3887 52.8706C51.0202 53.7035 51.5295 53.9183 52.2217 53.3635C52.9043 52.809 54.1402 51.3729 54.9695 49.3405C55.7932 47.2971 56.2956 44.4465 55.8095 43.8123Z" fill="#FF9900"/>
<path fill-rule="evenodd" clip-rule="evenodd" d="M33.1038 24.3754C33.1038 27.3498 33.1789 29.8303 31.6755 32.4718C30.4621 34.6195 28.54 35.9403 26.3924 35.9403C23.4608 35.9403 21.7535 33.7067 21.7535 30.4102C21.7535 23.9028 27.5841 22.7218 33.1038 22.7218V24.3754ZM40.8028 42.9845C40.2981 43.4354 39.5679 43.4678 38.9989 43.167C36.4647 41.0624 36.0136 40.0853 34.6178 38.0772C30.43 42.351 27.4662 43.6287 22.0328 43.6287C15.6114 43.6287 10.6074 39.6663 10.6074 31.7309C10.6074 25.5352 13.9686 21.315 18.7468 19.2535C22.8918 17.4278 28.6796 17.1057 33.1038 16.6012V15.6132C33.1038 13.7984 33.2432 11.6508 32.1803 10.0832C31.2459 8.67645 29.4635 8.09655 27.8956 8.09655C24.9857 8.09655 22.387 9.58907 21.7535 12.6816C21.6245 13.369 21.12 14.0456 20.4328 14.0777L13.0234 13.2832C12.4007 13.1433 11.7136 12.6388 11.8854 11.683C13.5927 2.70617 21.6996 0 28.9585 0C32.6739 0 37.5274 0.987992 40.459 3.80145C44.1745 7.26972 43.82 11.8978 43.82 16.9339V28.8317C43.82 32.4075 45.3019 33.9751 46.6978 35.9081C47.1916 36.5953 47.2991 37.4224 46.6762 37.9375C45.1192 39.2367 42.3488 41.653 40.8241 43.006L40.8026 42.9845" fill="#171717"/>
</svg>
