<svg width="2380" height="2453" viewBox="0 0 2380 2453" fill="none" xmlns="http://www.w3.org/2000/svg">
<path d="M2087.54 2018.61C1075.54 2500.23 447.487 2097.27 45.4489 1852.52C20.5709 1837.09 -21.713 1856.12 14.9741 1898.26C148.913 2060.67 587.86 2452.11 1160.81 2452.11C1734.16 2452.11 2075.25 2139.26 2117.92 2084.69C2160.3 2030.58 2130.36 2000.73 2087.53 2018.61H2087.54ZM2371.76 1861.64C2344.58 1826.26 2206.5 1819.66 2119.61 1830.33C2032.58 1840.7 1901.95 1893.89 1913.31 1925.82C1919.13 1937.79 1931.03 1932.42 1990.82 1927.05C2050.76 1921.06 2218.71 1899.87 2253.7 1945.62C2288.86 1991.68 2200.14 2211.11 2183.93 2246.5C2168.28 2281.89 2189.92 2291.01 2219.32 2267.44C2248.33 2243.88 2300.83 2182.87 2336.07 2096.52C2371.06 2009.7 2392.41 1888.59 2371.76 1861.64Z" fill="#FF9900"/>
<path fill-rule="evenodd" clip-rule="evenodd" d="M1407.08 1035.85C1407.08 1162.22 1410.27 1267.61 1346.4 1379.84C1294.85 1471.09 1213.18 1527.2 1121.94 1527.2C997.389 1527.2 924.851 1432.3 924.851 1292.25C924.851 1015.77 1172.57 965.595 1407.08 965.595V1035.85ZM1734.19 1826.49C1712.74 1845.64 1681.72 1847.02 1657.54 1834.24C1549.88 1744.82 1530.71 1703.31 1471.41 1617.99C1293.48 1799.57 1167.56 1853.85 936.718 1853.85C663.897 1853.85 451.295 1685.51 451.295 1348.36C451.295 1085.13 594.1 905.828 797.105 818.241C973.213 740.674 1219.12 726.99 1407.08 705.554V663.578C1407.08 586.473 1413.01 495.231 1367.85 428.627C1328.15 368.86 1252.42 344.223 1185.81 344.223C1062.18 344.223 951.768 407.634 924.851 539.025C919.37 568.23 897.935 596.974 868.739 598.34L553.942 564.586C527.487 558.643 498.291 537.207 505.59 496.597C578.127 115.205 922.563 0.22998 1230.96 0.22998C1388.82 0.22998 1595.03 42.2061 1719.58 161.74C1877.44 309.094 1862.38 505.723 1862.38 719.691V1225.18C1862.38 1377.11 1925.34 1443.71 1984.64 1525.83C2005.62 1555.03 2010.19 1590.17 1983.73 1612.06C1917.58 1667.26 1799.87 1769.91 1735.09 1827.4L1734.18 1826.49" fill="black"/>
<path d="M2087.54 2018.61C1075.54 2500.23 447.487 2097.27 45.4489 1852.52C20.5709 1837.09 -21.713 1856.12 14.9741 1898.26C148.913 2060.67 587.86 2452.11 1160.81 2452.11C1734.16 2452.11 2075.25 2139.26 2117.92 2084.69C2160.3 2030.58 2130.36 2000.73 2087.53 2018.61H2087.54ZM2371.76 1861.64C2344.58 1826.26 2206.5 1819.66 2119.61 1830.33C2032.58 1840.7 1901.95 1893.89 1913.31 1925.82C1919.13 1937.79 1931.03 1932.42 1990.82 1927.05C2050.76 1921.06 2218.71 1899.87 2253.7 1945.62C2288.86 1991.68 2200.14 2211.11 2183.93 2246.5C2168.28 2281.89 2189.92 2291.01 2219.32 2267.44C2248.33 2243.88 2300.83 2182.87 2336.07 2096.52C2371.06 2009.7 2392.41 1888.59 2371.76 1861.64Z" fill="#FF9900"/>
<path fill-rule="evenodd" clip-rule="evenodd" d="M1407.08 1035.85C1407.08 1162.22 1410.27 1267.61 1346.4 1379.84C1294.85 1471.09 1213.18 1527.2 1121.94 1527.2C997.389 1527.2 924.851 1432.3 924.851 1292.25C924.851 1015.77 1172.57 965.595 1407.08 965.595V1035.85ZM1734.19 1826.49C1712.74 1845.64 1681.72 1847.02 1657.54 1834.24C1549.88 1744.82 1530.71 1703.31 1471.41 1617.99C1293.48 1799.57 1167.56 1853.85 936.718 1853.85C663.897 1853.85 451.295 1685.51 451.295 1348.36C451.295 1085.13 594.1 905.828 797.105 818.241C973.213 740.674 1219.12 726.99 1407.08 705.554V663.578C1407.08 586.473 1413.01 495.231 1367.85 428.627C1328.15 368.86 1252.42 344.223 1185.81 344.223C1062.18 344.223 951.768 407.634 924.851 539.025C919.37 568.23 897.935 596.974 868.739 598.34L553.942 564.586C527.487 558.643 498.291 537.207 505.59 496.597C578.127 115.205 922.563 0.22998 1230.96 0.22998C1388.82 0.22998 1595.03 42.2061 1719.58 161.74C1877.44 309.094 1862.38 505.723 1862.38 719.691V1225.18C1862.38 1377.11 1925.34 1443.71 1984.64 1525.83C2005.62 1555.03 2010.19 1590.17 1983.73 1612.06C1917.58 1667.26 1799.87 1769.91 1735.09 1827.4L1734.18 1826.49" fill="black"/>
</svg>
