<svg width="32" height="32" viewBox="0 0 32 32" fill="none" xmlns="http://www.w3.org/2000/svg">
<path d="M26.6667 29.333H24V26.6663C24 24.4571 22.2092 22.6663 20 22.6663H12C9.79091 22.6663 8.00004 24.4571 8.00004 26.6663V29.333H5.33337V26.6663C5.33337 22.9845 8.31815 19.9997 12 19.9997H20C23.6819 19.9997 26.6667 22.9845 26.6667 26.6663V29.333ZM16 17.333C11.5818 17.333 8.00004 13.7513 8.00004 9.33301C8.00004 4.91473 11.5818 1.33301 16 1.33301C20.4183 1.33301 24 4.91473 24 9.33301C24 13.7513 20.4183 17.333 16 17.333ZM16 14.6663C18.9455 14.6663 21.3334 12.2785 21.3334 9.33301C21.3334 6.38749 18.9455 3.99967 16 3.99967C13.0545 3.99967 10.6667 6.38749 10.6667 9.33301C10.6667 12.2785 13.0545 14.6663 16 14.6663Z" fill="#44BD32"/>
</svg>
