<svg width="32" height="32" viewBox="0 0 32 32" fill="none" xmlns="http://www.w3.org/2000/svg">
<path d="M11.9974 4C11.9974 6.20913 13.7883 8 15.9973 8C18.2065 8 19.9973 6.20913 19.9973 4H27.9973C28.7337 4 29.3307 4.59696 29.3307 5.33333V14.6667C29.3307 15.4031 28.7337 16 27.9973 16H25.3293L25.3307 26.6667C25.3307 27.4031 24.7337 28 23.9973 28H7.9974C7.26101 28 6.66406 27.4031 6.66406 26.6667L6.66273 15.9987L3.9974 16C3.26101 16 2.66406 15.4031 2.66406 14.6667V5.33333C2.66406 4.59696 3.26101 4 3.9974 4H11.9974ZM26.664 6.66533H22.108L22.0856 6.72024C21.082 8.96307 18.8755 10.55 16.2865 10.6605L15.9973 10.6667C13.2844 10.6667 10.9499 9.04613 9.90914 6.72024L9.8854 6.66533H5.33073V13.332L9.32906 13.3307L9.32939 25.3333H22.664L22.6624 13.3333L26.664 13.332V6.66533Z" fill="#44BD32"/>
</svg>
