<svg width="32" height="32" viewBox="0 0 32 32" fill="none" xmlns="http://www.w3.org/2000/svg">
<path d="M21.3333 11.9951L27.1619 14.3265C27.668 14.529 28 15.0193 28 15.5645V27.9951C28 28.7315 27.4031 29.3285 26.6667 29.3285H5.33333C4.59696 29.3285 4 28.7315 4 27.9951V15.5645C4 15.0193 4.33193 14.529 4.83815 14.3265L10.6667 11.9951H21.3333ZM20.8197 14.6618H11.1802L6.66667 16.4673V26.6618H25.3333V25.3285H10.6667V18.6618H25.3333V16.4673L20.8197 14.6618ZM21.3333 3.99512C22.0697 3.99512 22.6667 4.59206 22.6667 5.32845V10.6618H9.33333V5.32845C9.33333 4.59206 9.93029 3.99512 10.6667 3.99512H21.3333ZM20 6.66178H12V7.99512H20V6.66178Z" fill="#44BD32"/>
</svg>
