<svg width="32" height="32" viewBox="0 0 32 32" fill="none" xmlns="http://www.w3.org/2000/svg">
<path d="M16 5.33366C10.1089 5.33366 5.33329 10.1093 5.33329 16.0003H9.33329C10.8061 16.0003 12 17.1942 12 18.667V25.3337C12 26.8065 10.8061 28.0003 9.33329 28.0003H5.33329C3.86053 28.0003 2.66663 26.8065 2.66663 25.3337V16.0003C2.66663 8.63653 8.63616 2.66699 16 2.66699C23.3637 2.66699 29.3333 8.63653 29.3333 16.0003V25.3337C29.3333 26.8065 28.1394 28.0003 26.6666 28.0003H22.6666C21.1938 28.0003 20 26.8065 20 25.3337V18.667C20 17.1942 21.1938 16.0003 22.6666 16.0003H26.6666C26.6666 10.1093 21.891 5.33366 16 5.33366ZM5.33329 18.667V25.3337H9.33329V18.667H5.33329ZM22.6666 18.667V25.3337H26.6666V18.667H22.6666Z" fill="#44BD32"/>
</svg>
