<svg width="74" height="100" viewBox="0 0 74 100" fill="none" xmlns="http://www.w3.org/2000/svg">
<path fill-rule="evenodd" clip-rule="evenodd" d="M36.6266 95.6913C18.7779 95.6913 4.30901 81.2225 4.30901 63.3737C4.30901 45.5249 18.7779 31.0561 36.6266 31.0561C54.4754 31.0561 68.9442 45.5249 68.9442 63.3737C68.9442 81.2225 54.4754 95.6913 36.6266 95.6913ZM36.6266 100C56.8552 100 73.2532 83.6023 73.2532 63.3737C73.2532 43.1451 56.8552 26.7471 36.6266 26.7471C16.3981 26.7471 0 43.1451 0 63.3737C0 83.6023 16.3981 100 36.6266 100Z" fill="#44BD32"/>
<path fill-rule="evenodd" clip-rule="evenodd" d="M33.7539 3.04785V63.374H38.0629V3.04785H33.7539Z" fill="#44BD32"/>
<path fill-rule="evenodd" clip-rule="evenodd" d="M20.9463 21.7744L37.4641 4.53831L34.4166 4.60183L52.3708 21.8379L55.3549 18.7294L37.4007 1.49336L35.8451 0L34.3531 1.55688L17.8352 18.7929L20.9463 21.7744Z" fill="#44BD32"/>
</svg>
