<svg width="32" height="32" viewBox="0 0 32 32" fill="none" xmlns="http://www.w3.org/2000/svg">
<path d="M9.33317 5.33366V26.667H22.6665V5.33366H9.33317ZM7.99984 2.66699H23.9998C24.7362 2.66699 25.3332 3.26395 25.3332 4.00033V28.0003C25.3332 28.7367 24.7362 29.3337 23.9998 29.3337H7.99984C7.26346 29.3337 6.6665 28.7367 6.6665 28.0003V4.00033C6.6665 3.26395 7.26346 2.66699 7.99984 2.66699ZM15.9998 22.667C16.7362 22.667 17.3332 23.2639 17.3332 24.0003C17.3332 24.7367 16.7362 25.3337 15.9998 25.3337C15.2634 25.3337 14.6665 24.7367 14.6665 24.0003C14.6665 23.2639 15.2634 22.667 15.9998 22.667Z" fill="#44BD32"/>
</svg>
