<svg width="32" height="32" viewBox="0 0 32 32" fill="none" xmlns="http://www.w3.org/2000/svg">
<path d="M6.67318 12.0042C7.40956 12.0042 8.00651 12.6012 8.00651 13.3376C10.1862 13.3376 12.1914 14.0848 13.7799 15.3369L16.6732 15.3376C18.45 15.3376 20.0464 16.11 21.1451 17.3372L25.3399 17.3376C27.9963 17.3376 30.2897 18.8913 31.3613 21.1394C28.2083 25.3002 23.1024 28.0042 17.3399 28.0042C13.6189 28.0042 10.4729 27.2 7.92534 25.7937C7.74076 26.305 7.2497 26.6709 6.67318 26.6709H2.67318C1.9368 26.6709 1.33984 26.074 1.33984 25.3376V13.3376C1.33984 12.6012 1.9368 12.0042 2.67318 12.0042H6.67318ZM8.00786 16.0042L8.00651 22.7002L8.06699 22.7436C10.4588 24.4241 13.5773 25.3376 17.3399 25.3376C21.3452 25.3376 25.0713 23.7968 27.7867 21.165L27.9639 20.9869L27.8049 20.853C27.1863 20.369 26.4273 20.0688 25.6132 20.0134L25.3399 20.0042H22.5245C22.6219 20.433 22.6732 20.8793 22.6732 21.3376V22.6709H10.6732V20.0042L19.7265 20.0029L19.6807 19.8982C19.1733 18.8401 18.124 18.0913 16.8924 18.0113L16.6732 18.0042L12.7673 18.0041C11.5576 16.7702 9.87216 16.0046 8.00786 16.0042ZM5.33984 14.6709H4.00651V24.0042H5.33984V14.6709ZM24.0065 6.6709C26.2156 6.6709 28.0065 8.46175 28.0065 10.6709C28.0065 12.88 26.2156 14.6709 24.0065 14.6709C21.7973 14.6709 20.0065 12.88 20.0065 10.6709C20.0065 8.46175 21.7973 6.6709 24.0065 6.6709ZM24.0065 9.33757C23.2701 9.33757 22.6732 9.93451 22.6732 10.6709C22.6732 11.4073 23.2701 12.0042 24.0065 12.0042C24.7429 12.0042 25.3399 11.4073 25.3399 10.6709C25.3399 9.93451 24.7429 9.33757 24.0065 9.33757ZM14.6732 2.6709C16.8823 2.6709 18.6732 4.46175 18.6732 6.6709C18.6732 8.88003 16.8823 10.6709 14.6732 10.6709C12.464 10.6709 10.6732 8.88003 10.6732 6.6709C10.6732 4.46175 12.464 2.6709 14.6732 2.6709ZM14.6732 5.33757C13.9368 5.33757 13.3399 5.93451 13.3399 6.6709C13.3399 7.40727 13.9368 8.00423 14.6732 8.00423C15.4096 8.00423 16.0065 7.40727 16.0065 6.6709C16.0065 5.93451 15.4096 5.33757 14.6732 5.33757Z" fill="white"/>
</svg>
