<svg width="32" height="32" viewBox="0 0 32 32" fill="none" xmlns="http://www.w3.org/2000/svg">
<path d="M5.34001 21.3337V5.33366H2.67334V2.66699H6.67334C7.40973 2.66699 8.00667 3.26395 8.00667 4.00033V20.0003H24.5912L27.2579 9.33366H10.6733V6.66699H28.9656C29.702 6.66699 30.299 7.26395 30.299 8.00033C30.299 8.10934 30.2856 8.21795 30.2591 8.32371L26.9258 21.657C26.7775 22.2506 26.2442 22.667 25.6323 22.667H6.67334C5.93697 22.667 5.34001 22.0701 5.34001 21.3337ZM8.00667 30.667C6.53391 30.667 5.34001 29.4731 5.34001 28.0003C5.34001 26.5275 6.53391 25.3337 8.00667 25.3337C9.47943 25.3337 10.6733 26.5275 10.6733 28.0003C10.6733 29.4731 9.47943 30.667 8.00667 30.667ZM24.0067 30.667C22.5339 30.667 21.34 29.4731 21.34 28.0003C21.34 26.5275 22.5339 25.3337 24.0067 25.3337C25.4795 25.3337 26.6734 26.5275 26.6734 28.0003C26.6734 29.4731 25.4795 30.667 24.0067 30.667Z" fill="#44BD32"/>
</svg>
