<svg width="32" height="32" viewBox="0 0 32 32" fill="none" xmlns="http://www.w3.org/2000/svg">
<path d="M16.0062 29.3365C8.6424 29.3365 2.67285 23.3671 2.67285 16.0032C2.67285 8.63946 8.6424 2.66992 16.0062 2.66992C23.3699 2.66992 29.3395 8.63946 29.3395 16.0032C29.3395 23.3671 23.3699 29.3365 16.0062 29.3365ZM16.0062 26.6699C21.8973 26.6699 26.6729 21.8943 26.6729 16.0032C26.6729 10.1122 21.8973 5.33659 16.0062 5.33659C10.1151 5.33659 5.33952 10.1122 5.33952 16.0032C5.33952 21.8943 10.1151 26.6699 16.0062 26.6699ZM13.4062 14.6699H20.0062V17.3365H13.4062C13.715 18.8581 15.0602 20.0032 16.6729 20.0032C17.4931 20.0032 18.2441 19.7071 18.8247 19.2156L21.0927 20.7276C19.9961 21.9216 18.4218 22.6699 16.6729 22.6699C13.5845 22.6699 11.0411 20.3365 10.7095 17.3365H9.33952V14.6699H10.7095C11.0411 11.6699 13.5845 9.33659 16.6729 9.33659C18.4218 9.33659 19.9961 10.0849 21.0927 11.2789L18.8249 12.7909C18.2442 12.2995 17.4931 12.0033 16.6729 12.0033C15.0602 12.0033 13.715 13.1484 13.4062 14.6699Z" fill="#44BD32"/>
</svg>
