<svg width="32" height="32" viewBox="0 0 32 32" fill="none" xmlns="http://www.w3.org/2000/svg">
<path d="M11.9529 24.0003C11.6294 26.2618 9.68448 28.0003 7.3335 28.0003C4.98251 28.0003 3.03758 26.2618 2.71408 24.0003H1.3335V8.00033C1.3335 7.26395 1.93046 6.66699 2.66683 6.66699H21.3335C22.0699 6.66699 22.6668 7.26395 22.6668 8.00033V10.667H26.6668L30.6668 16.0746V24.0003H27.953C27.6294 26.2618 25.6844 28.0003 23.3335 28.0003C20.9826 28.0003 19.0376 26.2618 18.714 24.0003H11.9529ZM20.0002 9.33366H4.00016V20.0677C4.84718 19.2033 6.02771 18.667 7.3335 18.667C9.1951 18.667 10.8021 19.757 11.5511 21.3337H19.1159C19.3395 20.863 19.6396 20.4355 20.0002 20.0677V9.33366ZM22.6668 17.3337H28.0002V16.9537L25.3224 13.3337H22.6668V17.3337ZM23.3335 25.3337C24.2043 25.3337 24.9451 24.7771 25.2196 24.0003C25.2934 23.7918 25.3335 23.5674 25.3335 23.3337C25.3335 22.2291 24.438 21.3337 23.3335 21.3337C22.229 21.3337 21.3335 22.2291 21.3335 23.3337C21.3335 23.5674 21.3736 23.7918 21.4474 24.0003C21.7219 24.7771 22.4627 25.3337 23.3335 25.3337ZM9.3335 23.3337C9.3335 22.2291 8.43807 21.3337 7.3335 21.3337C6.22892 21.3337 5.3335 22.2291 5.3335 23.3337C5.3335 23.5674 5.3736 23.7918 5.4473 24.0003C5.72186 24.7771 6.46268 25.3337 7.3335 25.3337C8.20431 25.3337 8.94514 24.7771 9.2197 24.0003C9.29339 23.7918 9.3335 23.5674 9.3335 23.3337Z" fill="#44BD32"/>
</svg>
