<svg width="19" height="28" viewBox="0 0 19 28" fill="none" xmlns="http://www.w3.org/2000/svg">
<path d="M10.0091 0H8.63069C7.98204 0 7.45051 0.522522 7.45051 1.17117V6.28829C7.45051 6.93694 7.97303 7.46847 8.63069 7.46847H10.0091C10.6577 7.46847 11.1892 6.94595 11.1892 6.28829V1.17117C11.1892 0.522522 10.6667 0 10.0091 0ZM9.3424 24.2703C6.25231 24.2703 3.7388 21.7658 3.7388 18.6667C3.7388 15.5676 6.2433 13.0631 9.3424 13.0631C12.4415 13.0631 14.946 15.5676 14.946 18.6667C14.946 21.7658 12.4415 24.2703 9.3424 24.2703ZM9.33339 9.33333C6.8379 9.33333 4.49556 10.3153 2.72979 12.0901C0.964026 13.8649 -0.008947 16.2162 6.20069e-05 18.7117C6.20069e-05 21.1982 1.00006 23.5496 2.80186 25.3243C4.53159 27.027 6.87393 28 9.23429 28H9.45952C11.8469 28 14.1352 27.0541 15.892 25.3153C17.6938 23.5405 18.6847 21.1982 18.6938 18.7207C18.6938 16.2162 17.7298 13.8559 15.955 12.0811C14.1892 10.3153 11.8469 9.33333 9.35141 9.33333" fill="white"/>
</svg>
