<svg width="56" height="57" viewBox="0 0 56 57" fill="none" xmlns="http://www.w3.org/2000/svg">
<circle cx="28" cy="28.9883" r="28" fill="white"/>
<path d="M22.9405 21.9882C22.9401 22.8025 22.4461 23.5353 21.6913 23.841C20.9366 24.1467 20.0719 23.9643 19.5049 23.3798C18.9379 22.7953 18.7819 21.9254 19.1105 21.1804C19.4391 20.4353 20.1865 19.9638 21.0005 19.9882C22.0815 20.0207 22.941 20.9067 22.9405 21.9882ZM23.0005 25.4682H19.0005V37.9882H23.0005V25.4682ZM29.3205 25.4682H25.3405V37.9882H29.2805V31.4182C29.2805 27.7582 34.0505 27.4182 34.0505 31.4182V37.9882H38.0005V30.0582C38.0005 23.8882 30.9405 24.1182 29.2805 27.1482L29.3205 25.4682Z" fill="#47A247"/>
</svg>
