<svg width="139" height="40" viewBox="0 0 139 40" fill="none" xmlns="http://www.w3.org/2000/svg">
<g clip-path="url(#clip0_2756_43)">
<path d="M23.3413 0H21.5024C20.637 0 19.9279 0.697115 19.9279 1.5625V8.38942C19.9279 9.25481 20.625 9.96394 21.5024 9.96394H23.3413C24.2067 9.96394 24.9159 9.26683 24.9159 8.38942V1.5625C24.9159 0.697115 24.2187 0 23.3413 0ZM107.115 32.3798C102.993 32.3798 99.6394 29.0385 99.6394 24.9038C99.6394 20.7692 102.981 17.4279 107.115 17.4279C111.25 17.4279 114.591 20.7692 114.591 24.9038C114.591 29.0385 111.25 32.3798 107.115 32.3798ZM22.4519 32.3798C18.3293 32.3798 14.976 29.0385 14.976 24.9038C14.976 20.7692 18.3173 17.4279 22.4519 17.4279C26.5865 17.4279 29.9279 20.7692 29.9279 24.9038C29.9279 29.0385 26.5865 32.3798 22.4519 32.3798ZM130.649 32.2837C130.649 32.2837 130.577 32.2837 130.541 32.2837C130.577 32.2837 130.613 32.2837 130.649 32.2837ZM130.685 32.2837C130.685 32.2837 130.661 32.2837 130.649 32.2837C130.649 32.2837 130.673 32.2837 130.685 32.2837ZM68.1731 12.4519H66.3341C65.4687 12.4519 64.7596 13.149 64.7596 14.0264V35.7933C64.7596 36.6587 65.4567 37.3678 66.3341 37.3678H68.1731C69.0385 37.3678 69.7356 36.6707 69.7356 35.7933V14.0264C69.7356 13.1611 69.0385 12.4519 68.1731 12.4519ZM22.4399 12.4519C19.1106 12.4519 15.9856 13.762 13.6298 16.1298C11.274 18.4976 9.97596 21.6346 9.98798 24.9639C9.98798 28.2813 11.3221 31.4183 13.726 33.7861C16.0337 36.0577 19.1587 37.3558 22.3077 37.3558H22.6082C25.7933 37.3558 28.8462 36.0938 31.1899 33.774C33.5937 31.4063 34.9159 28.2813 34.9279 24.976C34.9279 21.6346 33.6418 18.4856 31.274 16.1178C28.9183 13.762 25.7933 12.4519 22.4639 12.4519M49.8317 12.4519C46.5024 12.4519 43.3774 13.762 41.0216 16.1298C38.6659 18.4976 37.3678 21.6346 37.3798 24.9639C37.3798 28.2813 38.7139 31.4183 41.1178 33.7861C43.4255 36.0577 46.5505 37.3558 49.6995 37.3558H50C53.1851 37.3558 56.238 36.0938 58.5817 33.774C60.3846 31.9952 61.5865 29.7837 62.0673 27.3918C62.2236 26.5986 62.3077 25.7933 62.3197 24.9639C62.3197 24.5913 62.3077 24.2188 62.2716 23.8462C62.1995 23.0288 61.5264 22.4038 60.7091 22.4038H53.9062C53.0409 22.4038 52.3317 23.101 52.3317 23.9784V25.8173C52.3317 26.6827 53.0288 27.3798 53.9062 27.3798H56.9231C55.9014 30.2764 53.137 32.3558 49.8798 32.3558C45.7572 32.3558 42.4038 29.0144 42.4038 24.8798C42.4038 20.7452 45.601 17.5601 49.6034 17.4159H49.6274C49.7115 17.4159 49.8077 17.4159 49.8918 17.4159C50.4327 17.4159 50.9615 17.476 51.4663 17.5841C52.4519 17.8005 53.3534 18.1971 54.1466 18.762C54.4111 18.9543 54.7236 19.0385 55.0361 19.0385C55.4447 19.0385 55.8413 18.8822 56.1418 18.5817L57.4519 17.2716C58.125 16.5986 58.0529 15.4808 57.2957 14.9159C56.4062 14.2548 55.4567 13.7139 54.4351 13.3173L54.363 13.2933C54.2548 13.2452 54.1466 13.2091 54.0385 13.1731C53.9663 13.149 53.8942 13.125 53.8341 13.101C53.75 13.0769 53.6659 13.0529 53.5817 13.0168C52.3918 12.6442 51.1418 12.4399 49.8678 12.4399M84.6635 12.4519C81.3341 12.4519 78.2091 13.762 75.8534 16.1298C73.4976 18.4976 72.1995 21.6346 72.2115 24.9639C72.2115 28.2813 73.5457 31.4183 75.9495 33.7861C78.2572 36.0577 81.3822 37.3558 84.5312 37.3558H84.7356C87.4399 37.3558 90.012 36.4904 92.1514 34.8918C92.9207 34.3269 92.9928 33.1971 92.3197 32.524L91.0096 31.2139C90.7091 30.9135 90.3005 30.7452 89.9038 30.7452C89.5913 30.7452 89.2788 30.8413 89.0144 31.0216C87.8005 31.863 86.3822 32.3678 84.7957 32.3678C84.7356 32.3678 84.6875 32.3678 84.6274 32.3678C80.3846 32.3197 76.9952 28.738 77.2596 24.4231C77.5 20.625 80.649 17.5601 84.4591 17.4279C84.5433 17.4279 84.6394 17.4279 84.7236 17.4279C86.3101 17.4279 87.7764 17.9207 88.9904 18.762C89.2548 18.9543 89.5673 19.0385 89.8798 19.0385C90.2885 19.0385 90.6851 18.8822 90.9856 18.5817L92.2957 17.2716C92.9687 16.5986 92.8966 15.4808 92.1394 14.9038C90 13.3053 87.4159 12.4399 84.7115 12.4399M107.091 12.4519C103.762 12.4519 100.637 13.762 98.2812 16.1298C95.9255 18.4976 94.6274 21.6346 94.6394 24.9639C94.6394 28.2813 95.9736 31.4183 98.3774 33.7861C100.685 36.0577 103.81 37.3558 106.959 37.3558H107.26C110.445 37.3558 113.486 36.0938 115.841 33.774C118.245 31.4063 119.567 28.2813 119.579 24.976C119.579 21.6346 118.293 18.4856 115.925 16.1178C113.57 13.762 110.445 12.4519 107.115 12.4519M130.132 12.4279C129.916 12.4279 129.687 12.4279 129.459 12.4399C129.231 12.4399 128.99 12.4519 128.75 12.476C128.45 12.512 128.149 12.5601 127.861 12.6202C124.555 13.3654 122.151 16.274 122.031 19.6394V19.7115C122.031 20.024 122.031 20.3486 122.067 20.6731C122.091 20.9014 122.127 21.1418 122.175 21.3582C122.38 22.2236 123.149 24.2428 126.022 25.4207L129.603 26.7909L129.675 26.8149L130.757 27.2236L130.865 27.2716H130.877L131.01 27.3317L131.322 27.4519C131.887 27.7284 132.873 28.4736 132.981 29.5673C133.101 30.8053 132.284 31.9231 131.106 32.1995C130.962 32.2236 130.817 32.2476 130.685 32.2596C130.613 32.2596 130.553 32.2837 130.481 32.2837C130.385 32.2837 130.288 32.2957 130.192 32.3077C130.072 32.3077 129.952 32.3197 129.844 32.3317C129.748 32.3317 129.639 32.3317 129.543 32.3317C129.495 32.3317 129.447 32.3317 129.387 32.3317C128.293 32.2476 127.272 31.9231 126.334 31.4063C126.094 31.274 125.829 31.2139 125.577 31.2139C125.12 31.2139 124.663 31.4183 124.363 31.7909L123.197 33.2332C122.596 33.9784 122.788 35.0841 123.606 35.5649C125.192 36.5144 126.947 37.0913 128.774 37.2716C129.195 37.3317 129.627 37.3678 130.072 37.3678C130.385 37.3678 130.697 37.3558 131.01 37.3197C131.07 37.3197 131.118 37.3077 131.178 37.2957C131.226 37.2957 131.274 37.2957 131.322 37.2837C132.2 37.1995 133.029 36.9591 133.774 36.5986C134.159 36.4183 134.531 36.1899 134.88 35.9495C136.767 34.6154 137.993 32.4279 138.065 30.012V29.9399C138.065 29.6514 138.065 29.351 138.029 29.0505C137.993 28.6538 137.909 28.2692 137.812 27.8846C137.776 27.7524 137.74 27.6202 137.692 27.5C137.668 27.4279 137.644 27.3678 137.62 27.2957C137.031 25.7572 135.877 24.988 135.12 24.6274L134.411 24.351L134.351 24.3269H134.303L134.183 24.2668L132.019 23.4495L131.959 23.4255L129.471 22.476H129.459L129.351 22.4279H129.327L129.075 22.3197L128.305 22.0313C127.656 21.6466 127.187 20.9736 127.103 20.1683C126.983 18.9423 127.776 17.8486 128.93 17.5481V17.524C128.858 17.5361 128.774 17.5481 128.702 17.5601C128.846 17.524 129.002 17.5 129.147 17.476C129.495 17.4279 129.832 17.4038 130.168 17.4038C131.466 17.4038 132.704 17.7404 133.786 18.3413C134.026 18.4736 134.291 18.5337 134.543 18.5337C135 18.5337 135.457 18.3293 135.757 17.9567L136.274 17.3317L136.935 16.5264C137.536 15.7933 137.356 14.6875 136.538 14.1947C134.615 13.0409 132.428 12.4279 130.18 12.4279M3.41346 7.47596H1.57452C0.709134 7.47596 0 8.17308 0 9.05048V36.4423V38.4375C0 39.3029 0.697115 40 1.57452 40H10.8894C11.7548 40 12.4639 39.3029 12.4639 38.4375V36.4423C12.4639 35.5769 11.7668 34.8798 10.8894 34.8798H4.98798V9.03846C4.98798 8.17308 4.29087 7.46394 3.41346 7.46394M68.1731 2.48798H66.1058C65.2404 2.48798 64.5312 3.1851 64.5312 4.0625V8.40144C64.5312 9.26683 65.2284 9.97596 66.1058 9.97596H68.1731C69.0385 9.97596 69.7356 9.27885 69.7356 8.40144V4.0625C69.7356 3.19712 69.0385 2.48798 68.1731 2.48798Z" fill="white"/>
</g>
<defs>
<clipPath id="clip0_2756_43">
<rect width="138.053" height="40" fill="white"/>
</clipPath>
</defs>
</svg>
