<svg width="32" height="32" viewBox="0 0 32 32" fill="none" xmlns="http://www.w3.org/2000/svg">
<path d="M16.6669 2.66667C16.2988 2.66667 16.0003 2.96515 16.0003 3.33333V16H13.3336V6C13.3336 5.63181 13.0351 5.33333 12.6669 5.33333C12.2987 5.33333 12.0003 5.63181 12.0003 6V18.6667C11.5287 18.6667 9.33365 18.6667 9.33365 18.6667C8.82548 16.5056 7.52315 15.2543 6.1272 15.0955C6.50568 16.0885 7.14823 17.6789 8.22179 20.1327C9.36681 22.7496 10.5217 24.6957 12.005 25.9981C13.4377 27.256 15.2781 28 18.0003 28C22.0504 28 25.3336 24.7169 25.3336 20.6669V9.33333C25.3336 8.96515 25.0351 8.66667 24.6669 8.66667C24.2988 8.66667 24.0003 8.96515 24.0003 9.33333V16H21.3336V5.33333C21.3336 4.96515 21.0351 4.66667 20.6669 4.66667C20.2988 4.66667 20.0003 4.96515 20.0003 5.33333V16H17.3336V3.33333C17.3336 2.96515 17.0351 2.66667 16.6669 2.66667ZM28.0003 20.6669C28.0003 26.1899 23.5231 30.6667 18.0003 30.6667C14.7223 30.6667 12.2295 29.744 10.2455 28.002C8.31215 26.3044 6.96704 23.9175 5.77873 21.2016C4.53857 18.3671 3.85339 16.6405 3.47988 15.6313C3.00424 14.3463 3.66155 12.5495 5.44777 12.4246C6.98768 12.3169 8.29415 12.8167 9.3336 13.6783V6C9.3336 4.15905 10.826 2.66667 12.6669 2.66667C12.9136 2.66667 13.1541 2.69347 13.3855 2.74431C13.6636 1.1843 15.0269 0 16.6669 0C18.0803 0 19.2881 0.879592 19.7731 2.12121C20.0575 2.04223 20.3573 2 20.6669 2C22.5079 2 24.0003 3.49239 24.0003 5.33333V6.06668C24.2157 6.02296 24.4387 6 24.6669 6C26.5079 6 28.0003 7.49239 28.0003 9.33333V20.6669Z" fill="#44BD32"/>
</svg>
