<svg width="32" height="32" viewBox="0 0 32 32" fill="none" xmlns="http://www.w3.org/2000/svg">
<path d="M14.6665 14.667V9.33366H17.3332V14.667H22.6665V17.3337H17.3332V22.667H14.6665V17.3337H9.33317V14.667H14.6665ZM15.9998 29.3337C8.63604 29.3337 2.6665 23.3641 2.6665 16.0003C2.6665 8.63653 8.63604 2.66699 15.9998 2.66699C23.3636 2.66699 29.3332 8.63653 29.3332 16.0003C29.3332 23.3641 23.3636 29.3337 15.9998 29.3337ZM15.9998 26.667C21.8909 26.667 26.6665 21.8914 26.6665 16.0003C26.6665 10.1093 21.8909 5.33366 15.9998 5.33366C10.1088 5.33366 5.33317 10.1093 5.33317 16.0003C5.33317 21.8914 10.1088 26.667 15.9998 26.667Z" fill="#44BD32"/>
</svg>
