<svg width="32" height="32" viewBox="0 0 32 32" fill="none" xmlns="http://www.w3.org/2000/svg">
<path d="M24.6666 13.3337L30.5333 28.0003H27.66L26.0586 24.0003H20.6053L19.0066 28.0003H16.1346L22 13.3337H24.6666ZM13.3333 2.66699V5.33366H21.3333V8.00033L18.7096 8.00113C17.6566 11.1552 15.9984 14.0079 13.882 16.4017C14.8458 17.2613 15.8893 18.0238 16.9966 18.6775L15.9958 21.181C14.5649 20.3711 13.2259 19.4035 11.9994 18.3002C9.61867 20.443 6.81215 22.0741 3.73184 23.0315L3.01672 20.4593C5.65129 19.6274 8.06053 18.2319 10.1205 16.4031C8.61699 14.7045 7.34493 12.7735 6.35652 10.6674L9.34241 10.6675C10.0935 12.0521 10.9863 13.3381 11.9995 14.503C13.6377 12.6204 14.9606 10.4219 15.8793 8.00167L2.66663 8.00033V5.33366H10.6666V2.66699H13.3333ZM23.3333 17.1806L21.6706 21.3337H24.9933L23.3333 17.1806Z" fill="#44BD32"/>
</svg>
