<svg width="89" height="88" viewBox="0 0 89 88" fill="none" xmlns="http://www.w3.org/2000/svg">
<path d="M86.243 71.2381H79.9325V37.1695C80.1243 27.5213 76.468 18.1909 69.7649 11.2234C63.0618 4.25598 53.8588 0.21995 44.1732 0C34.4876 0.21995 25.2847 4.25598 18.5816 11.2234C11.8785 18.1909 8.22212 27.5213 8.41395 37.1695V71.2381H2.10349C1.54561 71.2381 1.01058 71.4588 0.616098 71.8518C0.221617 72.2447 0 72.7776 0 73.3333C0 73.889 0.221617 74.422 0.616098 74.8149C1.01058 75.2078 1.54561 75.4286 2.10349 75.4286H33.6558V77.3981C33.6558 80.2099 34.7772 82.9065 36.7732 84.8948C38.7693 86.883 41.4766 88 44.2994 88C47.1223 88 49.8296 86.883 51.8256 84.8948C53.8217 82.9065 54.9431 80.2099 54.9431 77.3981V75.4286H86.243C86.8008 75.4286 87.3359 75.2078 87.7304 74.8149C88.1248 74.422 88.3465 73.889 88.3465 73.3333C88.3465 72.7776 88.1248 72.2447 87.7304 71.8518C87.3359 71.4588 86.8008 71.2381 86.243 71.2381ZM12.6209 37.1695C12.4288 28.6325 15.6419 20.3678 21.5561 14.1862C27.4703 8.00455 35.6033 4.41013 44.1732 4.19048C52.7431 4.41013 60.8762 8.00455 66.7904 14.1862C72.7046 20.3678 75.9176 28.6325 75.7255 37.1695V71.2381H12.6209V37.1695ZM50.4837 77.3981C50.4837 79.0985 49.8055 80.7293 48.5984 81.9317C47.3913 83.134 45.7541 83.8095 44.047 83.8095C42.3399 83.8095 40.7027 83.134 39.4956 81.9317C38.2885 80.7293 37.6103 79.0985 37.6103 77.3981V75.4286H50.4837V77.3981Z" fill="#44BD32"/>
</svg>
