<svg width="160" height="100" viewBox="0 0 160 100" fill="none" xmlns="http://www.w3.org/2000/svg">
<mask id="path-1-outside-1_2851_49" maskUnits="userSpaceOnUse" x="-1.0108" y="-1.01043" width="102.053" height="102.053" fill="black">
<rect fill="white" x="-1.0108" y="-1.01043" width="102.053" height="102.053"/>
<path d="M99.4811 50.5188C99.1946 77.8465 76.8089 99.7677 49.4811 99.4812C22.1534 99.1946 0.232248 76.8089 0.518782 49.4812C0.805316 22.1535 23.1911 0.232282 50.5188 0.518816C77.8465 0.80535 99.7677 23.1911 99.4811 50.5188ZM3.84453 49.5161C3.57725 75.007 24.0251 95.8882 49.516 96.1554C75.007 96.4227 95.8881 75.9749 96.1554 50.4839C96.4227 24.993 75.9749 4.11184 50.4839 3.84456C24.993 3.57729 4.1118 24.0251 3.84453 49.5161Z"/>
</mask>
<path d="M99.4811 50.5188C99.1946 77.8465 76.8089 99.7677 49.4811 99.4812C22.1534 99.1946 0.232248 76.8089 0.518782 49.4812C0.805316 22.1535 23.1911 0.232282 50.5188 0.518816C77.8465 0.80535 99.7677 23.1911 99.4811 50.5188ZM3.84453 49.5161C3.57725 75.007 24.0251 95.8882 49.516 96.1554C75.007 96.4227 95.8881 75.9749 96.1554 50.4839C96.4227 24.993 75.9749 4.11184 50.4839 3.84456C24.993 3.57729 4.1118 24.0251 3.84453 49.5161Z" fill="#44BD32"/>
<path d="M99.4811 50.5188C99.1946 77.8465 76.8089 99.7677 49.4811 99.4812C22.1534 99.1946 0.232248 76.8089 0.518782 49.4812C0.805316 22.1535 23.1911 0.232282 50.5188 0.518816C77.8465 0.80535 99.7677 23.1911 99.4811 50.5188ZM3.84453 49.5161C3.57725 75.007 24.0251 95.8882 49.516 96.1554C75.007 96.4227 95.8881 75.9749 96.1554 50.4839C96.4227 24.993 75.9749 4.11184 50.4839 3.84456C24.993 3.57729 4.1118 24.0251 3.84453 49.5161Z" stroke="#44BD32" mask="url(#path-1-outside-1_2851_49)"/>
<mask id="path-2-outside-2_2851_49" maskUnits="userSpaceOnUse" x="58.3698" y="-1.01043" width="102.053" height="102.053" fill="black">
<rect fill="white" x="58.3698" y="-1.01043" width="102.053" height="102.053"/>
<path d="M158.862 50.5188C158.575 77.8465 136.189 99.7677 108.862 99.4812C81.5341 99.1946 59.6129 76.8089 59.8994 49.4812C60.1859 22.1535 82.5717 0.232282 109.899 0.518816C137.227 0.80535 159.148 23.1911 158.862 50.5188ZM63.2251 49.5161C62.9579 75.007 83.4057 95.8882 108.897 96.1554C134.388 96.4227 155.269 75.9749 155.536 50.4839C155.803 24.993 135.355 4.11184 109.865 3.84456C84.3736 3.57729 63.4924 24.0251 63.2251 49.5161Z"/>
</mask>
<path d="M158.862 50.5188C158.575 77.8465 136.189 99.7677 108.862 99.4812C81.5341 99.1946 59.6129 76.8089 59.8994 49.4812C60.1859 22.1535 82.5717 0.232282 109.899 0.518816C137.227 0.80535 159.148 23.1911 158.862 50.5188ZM63.2251 49.5161C62.9579 75.007 83.4057 95.8882 108.897 96.1554C134.388 96.4227 155.269 75.9749 155.536 50.4839C155.803 24.993 135.355 4.11184 109.865 3.84456C84.3736 3.57729 63.4924 24.0251 63.2251 49.5161Z" fill="#44BD32"/>
<path d="M158.862 50.5188C158.575 77.8465 136.189 99.7677 108.862 99.4812C81.5341 99.1946 59.6129 76.8089 59.8994 49.4812C60.1859 22.1535 82.5717 0.232282 109.899 0.518816C137.227 0.80535 159.148 23.1911 158.862 50.5188ZM63.2251 49.5161C62.9579 75.007 83.4057 95.8882 108.897 96.1554C134.388 96.4227 155.269 75.9749 155.536 50.4839C155.803 24.993 135.355 4.11184 109.865 3.84456C84.3736 3.57729 63.4924 24.0251 63.2251 49.5161Z" stroke="#44BD32" mask="url(#path-2-outside-2_2851_49)"/>
</svg>
