<svg width="32" height="33" viewBox="0 0 32 33" fill="none" xmlns="http://www.w3.org/2000/svg">
<path d="M5.34001 22.2682V6.26823H2.67334V3.60156H6.67334C7.40973 3.60156 8.00667 4.19852 8.00667 4.9349V20.9349H24.5912L27.2579 10.2682H10.6733V7.60156H28.9656C29.702 7.60156 30.299 8.19852 30.299 8.9349C30.299 9.04391 30.2856 9.15252 30.2591 9.25828L26.9258 22.5916C26.7775 23.1852 26.2442 23.6016 25.6323 23.6016H6.67334C5.93697 23.6016 5.34001 23.0046 5.34001 22.2682ZM8.00667 31.6016C6.53391 31.6016 5.34001 30.4077 5.34001 28.9349C5.34001 27.4621 6.53391 26.2682 8.00667 26.2682C9.47943 26.2682 10.6733 27.4621 10.6733 28.9349C10.6733 30.4077 9.47943 31.6016 8.00667 31.6016ZM24.0067 31.6016C22.5339 31.6016 21.34 30.4077 21.34 28.9349C21.34 27.4621 22.5339 26.2682 24.0067 26.2682C25.4795 26.2682 26.6734 27.4621 26.6734 28.9349C26.6734 30.4077 25.4795 31.6016 24.0067 31.6016Z" fill="#44BD32"/>
</svg>
