<svg width="120" height="119" viewBox="0 0 120 119" fill="none" xmlns="http://www.w3.org/2000/svg">
<path d="M105.925 65.6315C106.589 66.2954 107.666 66.2954 108.33 65.6315L119.148 54.8127C119.812 54.1488 119.812 53.0725 119.148 52.4086C118.484 51.7447 117.408 51.7447 116.744 52.4086L107.128 62.0252L97.5109 52.4086C96.847 51.7447 95.7706 51.7447 95.1067 52.4086C94.4429 53.0725 94.4429 54.1488 95.1067 54.8127L105.925 65.6315ZM105.428 58.5127L105.428 64.4294L108.828 64.4294L108.828 58.5127L105.428 58.5127Z" fill="#44BD32"/>
<mask id="path-2-inside-1_2564_316" fill="white">
<path d="M108.802 59.4979C108.802 53.0231 107.527 46.6118 105.049 40.6299C102.571 34.648 98.9397 29.2127 94.3613 24.6343C89.783 20.056 84.3477 16.4242 78.3658 13.9464C72.3839 11.4687 65.9725 10.1934 59.4978 10.1934C53.023 10.1934 46.6116 11.4687 40.6297 13.9464C34.6478 16.4242 29.2125 20.056 24.6342 24.6343C20.0559 29.2127 16.4241 34.648 13.9463 40.6299C11.4685 46.6118 10.1932 53.0231 10.1932 59.4979H13.5071C13.5071 53.4583 14.6967 47.4779 17.0079 41.898C19.3192 36.3182 22.7068 31.2482 26.9775 26.9776C31.2481 22.707 36.3181 19.3193 41.8979 17.0081C47.4777 14.6968 53.4582 13.5072 59.4978 13.5072C65.5373 13.5072 71.5178 14.6968 77.0976 17.0081C82.6775 19.3193 87.7475 22.707 92.0181 26.9776C96.2887 31.2482 99.6764 36.3182 101.988 41.898C104.299 47.4779 105.488 53.4583 105.488 59.4979H108.802Z"/>
</mask>
<path d="M108.802 59.4979C108.802 53.0231 107.527 46.6118 105.049 40.6299C102.571 34.648 98.9397 29.2127 94.3613 24.6343C89.783 20.056 84.3477 16.4242 78.3658 13.9464C72.3839 11.4687 65.9725 10.1934 59.4978 10.1934C53.023 10.1934 46.6116 11.4687 40.6297 13.9464C34.6478 16.4242 29.2125 20.056 24.6342 24.6343C20.0559 29.2127 16.4241 34.648 13.9463 40.6299C11.4685 46.6118 10.1932 53.0231 10.1932 59.4979H13.5071C13.5071 53.4583 14.6967 47.4779 17.0079 41.898C19.3192 36.3182 22.7068 31.2482 26.9775 26.9776C31.2481 22.707 36.3181 19.3193 41.8979 17.0081C47.4777 14.6968 53.4582 13.5072 59.4978 13.5072C65.5373 13.5072 71.5178 14.6968 77.0976 17.0081C82.6775 19.3193 87.7475 22.707 92.0181 26.9776C96.2887 31.2482 99.6764 36.3182 101.988 41.898C104.299 47.4779 105.488 53.4583 105.488 59.4979H108.802Z" fill="#44BD32" stroke="#44BD32" stroke-width="2" mask="url(#path-2-inside-1_2564_316)"/>
<mask id="path-3-inside-2_2564_316" fill="white">
<path d="M11.5716 47.9274C10.052 54.2213 9.78695 60.7529 10.7916 67.1492C11.7962 73.5456 14.0509 79.6814 17.4268 85.2064C20.8028 90.7314 25.2339 95.5374 30.4672 99.3499C35.7005 103.162 41.6334 105.907 47.9274 107.426C54.2213 108.946 60.7529 109.211 67.1492 108.206C73.5456 107.202 79.6814 104.947 85.2064 101.571C90.7314 98.1952 95.5373 93.7641 99.3498 88.5308C103.162 83.2975 105.907 77.3646 107.426 71.0707L104.205 70.2929C102.788 76.1638 100.228 81.698 96.6714 86.5795C93.1151 91.4611 88.6322 95.5944 83.4785 98.7434C78.3249 101.892 72.6015 103.996 66.635 104.933C60.6686 105.87 54.576 105.623 48.7051 104.205C42.8342 102.788 37.3 100.228 32.4185 96.6714C27.5369 93.1151 23.4036 88.6322 20.2546 83.4786C17.1056 78.3249 15.0024 72.6015 14.0653 66.6351C13.1282 60.6686 13.3754 54.576 14.7929 48.7051L11.5716 47.9274Z"/>
</mask>
<path d="M11.5716 47.9274C10.052 54.2213 9.78695 60.7529 10.7916 67.1492C11.7962 73.5456 14.0509 79.6814 17.4268 85.2064C20.8028 90.7314 25.2339 95.5374 30.4672 99.3499C35.7005 103.162 41.6334 105.907 47.9274 107.426C54.2213 108.946 60.7529 109.211 67.1492 108.206C73.5456 107.202 79.6814 104.947 85.2064 101.571C90.7314 98.1952 95.5373 93.7641 99.3498 88.5308C103.162 83.2975 105.907 77.3646 107.426 71.0707L104.205 70.2929C102.788 76.1638 100.228 81.698 96.6714 86.5795C93.1151 91.4611 88.6322 95.5944 83.4785 98.7434C78.3249 101.892 72.6015 103.996 66.635 104.933C60.6686 105.87 54.576 105.623 48.7051 104.205C42.8342 102.788 37.3 100.228 32.4185 96.6714C27.5369 93.1151 23.4036 88.6322 20.2546 83.4786C17.1056 78.3249 15.0024 72.6015 14.0653 66.6351C13.1282 60.6686 13.3754 54.576 14.7929 48.7051L11.5716 47.9274Z" fill="#44BD32" stroke="#44BD32" stroke-width="2" mask="url(#path-3-inside-2_2564_316)"/>
</svg>
