<svg width="32" height="33" viewBox="0 0 32 33" fill="none" xmlns="http://www.w3.org/2000/svg">
<path d="M11.9529 24.9349C11.6294 27.1964 9.68448 28.9349 7.3335 28.9349C4.98251 28.9349 3.03758 27.1964 2.71408 24.9349H1.3335V8.9349C1.3335 8.19852 1.93046 7.60156 2.66683 7.60156H21.3335C22.0699 7.60156 22.6668 8.19852 22.6668 8.9349V11.6016H26.6668L30.6668 17.0092V24.9349H27.953C27.6294 27.1964 25.6844 28.9349 23.3335 28.9349C20.9826 28.9349 19.0376 27.1964 18.714 24.9349H11.9529ZM20.0002 10.2682H4.00016V21.0022C4.84718 20.1378 6.02771 19.6016 7.3335 19.6016C9.1951 19.6016 10.8021 20.6916 11.5511 22.2682H19.1159C19.3395 21.7976 19.6396 21.3701 20.0002 21.0022V10.2682ZM22.6668 18.2682H28.0002V17.8882L25.3224 14.2682H22.6668V18.2682ZM23.3335 26.2682C24.2043 26.2682 24.9451 25.7117 25.2196 24.9349C25.2934 24.7264 25.3335 24.502 25.3335 24.2682C25.3335 23.1637 24.438 22.2682 23.3335 22.2682C22.229 22.2682 21.3335 23.1637 21.3335 24.2682C21.3335 24.502 21.3736 24.7264 21.4474 24.9349C21.7219 25.7117 22.4627 26.2682 23.3335 26.2682ZM9.3335 24.2682C9.3335 23.1637 8.43807 22.2682 7.3335 22.2682C6.22892 22.2682 5.3335 23.1637 5.3335 24.2682C5.3335 24.502 5.3736 24.7264 5.4473 24.9349C5.72186 25.7117 6.46268 26.2682 7.3335 26.2682C8.20431 26.2682 8.94514 25.7117 9.2197 24.9349C9.29339 24.7264 9.3335 24.502 9.3335 24.2682Z" fill="#44BD32"/>
</svg>
