<svg width="101" height="101" viewBox="0 0 101 101" fill="none" xmlns="http://www.w3.org/2000/svg">
<mask id="path-1-inside-1_2407_34" fill="white">
<path d="M100.47 51.0457C100.181 78.6584 77.5615 100.808 49.9488 100.519C22.3361 100.229 0.18625 77.61 0.475773 49.9973C0.765296 22.3845 23.3845 0.234704 50.9973 0.524227C78.61 0.81375 100.76 23.433 100.47 51.0457ZM3.8362 50.0325C3.56614 75.7893 24.2272 96.8882 49.984 97.1583C75.7408 97.4284 96.8398 76.7673 97.1099 51.0105C97.3799 25.2537 76.7188 4.15472 50.962 3.88466C25.2052 3.61459 4.10627 24.2757 3.8362 50.0325Z"/>
</mask>
<path d="M100.47 51.0457C100.181 78.6584 77.5615 100.808 49.9488 100.519C22.3361 100.229 0.18625 77.61 0.475773 49.9973C0.765296 22.3845 23.3845 0.234704 50.9973 0.524227C78.61 0.81375 100.76 23.433 100.47 51.0457ZM3.8362 50.0325C3.56614 75.7893 24.2272 96.8882 49.984 97.1583C75.7408 97.4284 96.8398 76.7673 97.1099 51.0105C97.3799 25.2537 76.7188 4.15472 50.962 3.88466C25.2052 3.61459 4.10627 24.2757 3.8362 50.0325Z" fill="#44BD32" stroke="#44BD32" stroke-width="2" mask="url(#path-1-inside-1_2407_34)"/>
</svg>
