<svg width="32" height="32" viewBox="0 0 32 32" fill="none" xmlns="http://www.w3.org/2000/svg">
<path d="M5.33317 24.0005H12.6665V25.6671C12.6665 27.6921 11.0249 29.3338 8.99984 29.3338C6.9748 29.3338 5.33317 27.6921 5.33317 25.6671V24.0005ZM10.7445 18.6671L10.8033 18.4905C11.8262 15.6833 11.9998 15.1622 11.9998 14.6671C11.9998 13.6678 11.7298 12.477 11.2963 11.6361C10.9737 11.0104 10.7465 10.8279 10.6665 10.8279C8.96098 10.8279 7.33317 12.6463 7.33317 14.6671C7.33317 15.9455 7.4334 17.0314 7.63549 18.3449C7.64357 18.3974 7.66262 18.5167 7.68666 18.6671H10.7445ZM10.6665 8.16122C13.3332 8.16122 14.6665 12.0004 14.6665 14.6671C14.6665 16.0005 13.9998 17.3338 13.3332 19.3338L12.6665 21.3338H5.33317C5.33317 20.0005 4.6665 18.0005 4.6665 14.6671C4.6665 11.3337 7.33028 8.16122 10.6665 8.16122ZM26.7385 18.7982L26.449 20.4395C26.0974 22.4338 24.1956 23.7654 22.2013 23.4138C20.207 23.0622 18.8754 21.1603 19.2272 19.1661L19.5165 17.5247L26.7385 18.7982ZM25.3392 13.1358C25.5592 12.4695 25.7404 11.9437 25.7426 11.9362C26.0117 11.0587 26.2238 10.1989 26.3896 9.25934C26.7405 7.2693 25.4532 5.19582 23.7736 4.89966C23.6948 4.88577 23.4393 5.02602 23.0129 5.58624C22.44 6.33905 21.9673 7.46485 21.7938 8.44898C21.7161 8.88926 21.7284 8.98797 22.1542 11.4663C22.2126 11.8066 22.2625 12.114 22.3081 12.4221L22.3354 12.6062L25.3392 13.1358ZM24.2366 2.2735C27.5221 2.85284 29.5945 6.43972 29.0157 9.72241C28.4369 13.0051 27.433 14.859 27.2016 16.1721L19.9796 14.8986L19.6704 12.8132C19.361 10.7278 18.9361 9.299 19.1676 7.98593C19.6306 5.35977 21.6104 1.81045 24.2366 2.2735Z" fill="#44BD32"/>
</svg>
