<svg width="88" height="88" viewBox="0 0 88 88" fill="none" xmlns="http://www.w3.org/2000/svg">
<path d="M10.3786 70.6988C9.58309 70.6988 8.83737 70.3176 8.3568 69.6713C-4.32083 52.1211 -2.39898 28.2571 12.9307 12.9279C28.2605 -2.40128 52.124 -4.32419 69.6741 8.37052C70.7845 9.18256 71.033 10.7238 70.2376 11.8341C69.4421 12.9444 67.8842 13.193 66.774 12.3975C51.2125 1.1613 30.0499 2.85194 16.4601 16.4577C3.94795 28.9699 1.51169 47.9116 9.98035 62.9756L13.593 54.7227C14.1399 53.4632 15.6148 52.8997 16.8744 53.4467C18.134 53.9936 18.6974 55.4684 18.1504 56.728L12.665 69.2402C12.3004 70.0522 11.5381 70.6157 10.6598 70.7151C10.5604 70.6985 10.4614 70.6988 10.3786 70.6988ZM75.0437 75.0407C90.3729 59.7115 92.2958 35.8475 79.6177 18.2974C79.0873 17.5682 78.2256 17.187 77.3307 17.2865C76.4359 17.3859 75.6735 17.9494 75.3255 18.7614L69.8401 31.2736C69.2932 32.533 69.8567 33.9914 71.1161 34.5549C72.3756 35.1018 73.834 34.5383 74.3975 33.2789L78.0102 25.0259C86.4786 40.09 84.0425 59.0317 71.5304 71.5438C57.9417 85.1326 36.778 86.8402 21.2165 75.604C20.1062 74.8086 18.5484 75.0571 17.753 76.1675C16.9409 77.2778 17.2061 78.8356 18.3164 79.6311C26.0722 85.2324 35.0711 88 44.0196 88C55.2887 87.9669 66.493 83.5923 75.0437 75.0407Z" fill="#44BD32"/>
</svg>
