<svg width="32" height="33" viewBox="0 0 32 33" fill="none" xmlns="http://www.w3.org/2000/svg">
<path d="M14.6665 26.2679V12.9346H5.33317V26.2679H14.6665ZM14.6665 10.2679V6.2679C14.6665 5.53153 15.2634 4.93457 15.9998 4.93457H27.9998C28.7362 4.93457 29.3332 5.53153 29.3332 6.2679V27.6012C29.3332 28.3376 28.7362 28.9346 27.9998 28.9346H3.99984C3.26346 28.9346 2.6665 28.3376 2.6665 27.6012V11.6012C2.6665 10.8649 3.26346 10.2679 3.99984 10.2679H14.6665ZM17.3332 7.60124V26.2679H26.6665V7.60124H17.3332ZM6.6665 22.2679H13.3332V24.9346H6.6665V22.2679ZM18.6665 22.2679H25.3332V24.9346H18.6665V22.2679ZM18.6665 18.2679H25.3332V20.9346H18.6665V18.2679ZM18.6665 14.2679H25.3332V16.9346H18.6665V14.2679ZM6.6665 18.2679H13.3332V20.9346H6.6665V18.2679Z" fill="#44BD32"/>
</svg>
