<svg width="32" height="32" viewBox="0 0 32 32" fill="none" xmlns="http://www.w3.org/2000/svg">
<path d="M25.3335 2.66699V5.33366H22.6668V9.33366C24.876 9.33366 26.6668 11.1245 26.6668 13.3337V28.0003C26.6668 28.7367 26.0699 29.3337 25.3335 29.3337H6.66683C5.93046 29.3337 5.3335 28.7367 5.3335 28.0003V13.3337C5.3335 11.1245 7.12436 9.33366 9.3335 9.33366V5.33366H6.66683V2.66699H25.3335ZM22.6668 12.0003H9.3335C8.59712 12.0003 8.00016 12.5973 8.00016 13.3337V26.667H24.0002V13.3337C24.0002 12.5973 23.4032 12.0003 22.6668 12.0003ZM17.3335 14.667V17.3337H20.0002V20.0003H17.3322L17.3335 22.667H14.6668L14.6655 20.0003H12.0002V17.3337H14.6668V14.667H17.3335ZM20.0002 5.33366H12.0002V9.33366H20.0002V5.33366Z" fill="#44BD32"/>
</svg>
