<svg width="32" height="32" viewBox="0 0 32 32" fill="none" xmlns="http://www.w3.org/2000/svg">
<path d="M16 31.6375L7.51472 23.1523C2.82843 18.4659 2.82843 10.868 7.51472 6.18171C12.201 1.49542 19.7989 1.49542 24.4853 6.18171C29.1716 10.868 29.1716 18.4659 24.4853 23.1523L16 31.6375ZM22.5996 21.2666C26.2445 17.6218 26.2445 11.7122 22.5996 8.06733C18.9548 4.42243 13.0452 4.42243 9.40033 8.06733C5.75544 11.7122 5.75544 17.6218 9.40033 21.2666L16 27.8663L22.5996 21.2666ZM16 17.3337C14.5272 17.3337 13.3333 16.1398 13.3333 14.667C13.3333 13.1942 14.5272 12.0003 16 12.0003C17.4728 12.0003 18.6667 13.1942 18.6667 14.667C18.6667 16.1398 17.4728 17.3337 16 17.3337Z" fill="#44BD32"/>
</svg>
