<svg width="1440" height="589" viewBox="0 0 1440 589" fill="none" xmlns="http://www.w3.org/2000/svg">
<g clip-path="url(#clip0_3012_17)">
<g opacity="0.64">
<path d="M22.376 541.16C21.4907 541.16 20.6907 540.936 19.976 540.488C19.272 540.04 18.7173 539.389 18.312 538.536C17.9067 537.672 17.704 536.627 17.704 535.4C17.704 534.173 17.9067 533.133 18.312 532.28C18.7173 531.416 19.272 530.76 19.976 530.312C20.6907 529.864 21.4907 529.64 22.376 529.64C23.272 529.64 24.072 529.864 24.776 530.312C25.48 530.76 26.0347 531.416 26.44 532.28C26.856 533.133 27.064 534.173 27.064 535.4C27.064 536.627 26.856 537.672 26.44 538.536C26.0347 539.389 25.48 540.04 24.776 540.488C24.072 540.936 23.272 541.16 22.376 541.16ZM22.376 539.352C22.8987 539.352 23.352 539.213 23.736 538.936C24.12 538.648 24.4187 538.211 24.632 537.624C24.856 537.037 24.968 536.296 24.968 535.4C24.968 534.493 24.856 533.752 24.632 533.176C24.4187 532.589 24.12 532.157 23.736 531.88C23.352 531.592 22.8987 531.448 22.376 531.448C21.8747 531.448 21.4267 531.592 21.032 531.88C20.648 532.157 20.344 532.589 20.12 533.176C19.9067 533.752 19.8 534.493 19.8 535.4C19.8 536.296 19.9067 537.037 20.12 537.624C20.344 538.211 20.648 538.648 21.032 538.936C21.4267 539.213 21.8747 539.352 22.376 539.352ZM30.246 541V530.6L31.158 531.544H27.878V529.8H32.326V541H30.246Z" fill="white" fill-opacity="0.5"/>
<path d="M19.59 563.07C19.058 563.07 18.5587 562.949 18.092 562.706C17.6347 562.454 17.266 562.109 16.986 561.67L17.42 561.194C17.6907 561.595 18.008 561.903 18.372 562.118C18.7453 562.323 19.1513 562.426 19.59 562.426C20.8873 562.426 21.536 561.656 21.536 560.116V553.844H17.924V553.2H22.25V560.116C22.25 561.096 22.026 561.833 21.578 562.328C21.13 562.823 20.4673 563.07 19.59 563.07ZM29.967 563V561.334L29.939 561.082V558.338C29.939 557.657 29.7523 557.139 29.379 556.784C29.015 556.429 28.4783 556.252 27.769 556.252C27.265 556.252 26.7936 556.341 26.355 556.518C25.9256 556.686 25.557 556.905 25.249 557.176L24.899 556.672C25.263 556.345 25.7016 556.093 26.215 555.916C26.7283 555.729 27.265 555.636 27.825 555.636C28.7303 555.636 29.4256 555.865 29.911 556.322C30.3963 556.779 30.639 557.461 30.639 558.366V563H29.967ZM27.335 563.056C26.7936 563.056 26.3223 562.972 25.921 562.804C25.529 562.627 25.2256 562.379 25.011 562.062C24.8056 561.745 24.703 561.381 24.703 560.97C24.703 560.597 24.787 560.261 24.955 559.962C25.1323 559.654 25.4216 559.407 25.823 559.22C26.2243 559.024 26.761 558.926 27.433 558.926H30.121V559.472H27.447C26.691 559.472 26.159 559.612 25.851 559.892C25.5523 560.172 25.403 560.522 25.403 560.942C25.403 561.409 25.5803 561.782 25.935 562.062C26.2896 562.342 26.789 562.482 27.433 562.482C28.049 562.482 28.567 562.342 28.987 562.062C29.4163 561.782 29.7336 561.376 29.939 560.844L30.135 561.32C29.939 561.852 29.603 562.277 29.127 562.594C28.6603 562.902 28.063 563.056 27.335 563.056ZM33.5231 563V555.692H34.1951V557.722L34.0971 557.498C34.3211 556.919 34.6897 556.467 35.2031 556.14C35.7164 555.804 36.3464 555.636 37.0931 555.636C37.6904 555.636 38.2084 555.753 38.6471 555.986C39.0951 556.21 39.4404 556.555 39.6831 557.022C39.9351 557.479 40.0611 558.049 40.0611 558.73V563H39.3611V558.786C39.3611 557.965 39.1511 557.339 38.7311 556.91C38.3204 556.481 37.7417 556.266 36.9951 556.266C36.4257 556.266 35.9311 556.383 35.5111 556.616C35.0911 556.849 34.7691 557.176 34.5451 557.596C34.3304 558.016 34.2231 558.52 34.2231 559.108V563H33.5231ZM42.943 563V555.692H43.615V557.722L43.517 557.498C43.741 556.919 44.1097 556.467 44.623 556.14C45.1363 555.804 45.7663 555.636 46.513 555.636C47.1103 555.636 47.6283 555.753 48.067 555.986C48.515 556.21 48.8603 556.555 49.103 557.022C49.355 557.479 49.481 558.049 49.481 558.73V563H48.781V558.786C48.781 557.965 48.571 557.339 48.151 556.91C47.7403 556.481 47.1617 556.266 46.415 556.266C45.8457 556.266 45.351 556.383 44.931 556.616C44.511 556.849 44.189 557.176 43.965 557.596C43.7503 558.016 43.643 558.52 43.643 559.108V563H42.943ZM55.3309 563.056C54.7056 563.056 54.1642 562.944 53.7069 562.72C53.2496 562.487 52.8949 562.141 52.6429 561.684C52.4002 561.217 52.2789 560.643 52.2789 559.962V555.692H52.9789V559.906C52.9789 560.727 53.1889 561.353 53.6089 561.782C54.0289 562.211 54.6216 562.426 55.3869 562.426C55.9376 562.426 56.4136 562.309 56.8149 562.076C57.2162 561.843 57.5242 561.516 57.7389 561.096C57.9536 560.667 58.0609 560.163 58.0609 559.584V555.692H58.7609V563H58.0889V560.97L58.1869 561.208C57.9722 561.777 57.6129 562.23 57.1089 562.566C56.6142 562.893 56.0216 563.056 55.3309 563.056ZM66.3341 563V561.334L66.3061 561.082V558.338C66.3061 557.657 66.1195 557.139 65.7461 556.784C65.3821 556.429 64.8455 556.252 64.1361 556.252C63.6321 556.252 63.1608 556.341 62.7221 556.518C62.2928 556.686 61.9241 556.905 61.6161 557.176L61.2661 556.672C61.6301 556.345 62.0688 556.093 62.5821 555.916C63.0955 555.729 63.6321 555.636 64.1921 555.636C65.0975 555.636 65.7928 555.865 66.2781 556.322C66.7635 556.779 67.0061 557.461 67.0061 558.366V563H66.3341ZM63.7021 563.056C63.1608 563.056 62.6895 562.972 62.2881 562.804C61.8961 562.627 61.5928 562.379 61.3781 562.062C61.1728 561.745 61.0701 561.381 61.0701 560.97C61.0701 560.597 61.1541 560.261 61.3221 559.962C61.4995 559.654 61.7888 559.407 62.1901 559.22C62.5915 559.024 63.1281 558.926 63.8001 558.926H66.4881V559.472H63.8141C63.0581 559.472 62.5261 559.612 62.2181 559.892C61.9195 560.172 61.7701 560.522 61.7701 560.942C61.7701 561.409 61.9475 561.782 62.3021 562.062C62.6568 562.342 63.1561 562.482 63.8001 562.482C64.4161 562.482 64.9341 562.342 65.3541 562.062C65.7835 561.782 66.1008 561.376 66.3061 560.844L66.5021 561.32C66.3061 561.852 65.9701 562.277 65.4941 562.594C65.0275 562.902 64.4301 563.056 63.7021 563.056ZM69.8903 563V555.692H70.5623V557.694L70.4923 557.47C70.6976 556.882 71.0429 556.429 71.5283 556.112C72.0136 555.795 72.6203 555.636 73.3483 555.636V556.322C73.3203 556.322 73.2923 556.322 73.2643 556.322C73.2363 556.313 73.2083 556.308 73.1803 556.308C72.3683 556.308 71.7336 556.565 71.2763 557.078C70.8189 557.582 70.5903 558.287 70.5903 559.192V563H69.8903ZM75.0953 565.772C74.7593 565.772 74.442 565.716 74.1433 565.604C73.854 565.492 73.6066 565.329 73.4013 565.114L73.7513 564.582C73.938 564.778 74.1386 564.923 74.3533 565.016C74.5773 565.109 74.8293 565.156 75.1093 565.156C75.4453 565.156 75.7393 565.063 75.9913 564.876C76.2526 564.689 76.4953 564.349 76.7193 563.854L77.2233 562.734L77.3213 562.608L80.4153 555.692H81.1293L77.3773 563.994C77.1813 564.442 76.9666 564.792 76.7333 565.044C76.5093 565.305 76.262 565.492 75.9913 565.604C75.7206 565.716 75.422 565.772 75.0953 565.772ZM77.2093 563.182L73.8213 555.692H74.5633L77.6433 562.566L77.2093 563.182Z" fill="white"/>
<path d="M142.376 541.16C141.491 541.16 140.691 540.936 139.976 540.488C139.272 540.04 138.717 539.389 138.312 538.536C137.907 537.672 137.704 536.627 137.704 535.4C137.704 534.173 137.907 533.133 138.312 532.28C138.717 531.416 139.272 530.76 139.976 530.312C140.691 529.864 141.491 529.64 142.376 529.64C143.272 529.64 144.072 529.864 144.776 530.312C145.48 530.76 146.035 531.416 146.44 532.28C146.856 533.133 147.064 534.173 147.064 535.4C147.064 536.627 146.856 537.672 146.44 538.536C146.035 539.389 145.48 540.04 144.776 540.488C144.072 540.936 143.272 541.16 142.376 541.16ZM142.376 539.352C142.899 539.352 143.352 539.213 143.736 538.936C144.12 538.648 144.419 538.211 144.632 537.624C144.856 537.037 144.968 536.296 144.968 535.4C144.968 534.493 144.856 533.752 144.632 533.176C144.419 532.589 144.12 532.157 143.736 531.88C143.352 531.592 142.899 531.448 142.376 531.448C141.875 531.448 141.427 531.592 141.032 531.88C140.648 532.157 140.344 532.589 140.12 533.176C139.907 533.752 139.8 534.493 139.8 535.4C139.8 536.296 139.907 537.037 140.12 537.624C140.344 538.211 140.648 538.648 141.032 538.936C141.427 539.213 141.875 539.352 142.376 539.352ZM148.31 541V539.608L152.758 535.384C153.131 535.032 153.409 534.723 153.59 534.456C153.771 534.189 153.889 533.944 153.942 533.72C154.006 533.485 154.038 533.267 154.038 533.064C154.038 532.552 153.862 532.157 153.51 531.88C153.158 531.592 152.641 531.448 151.958 531.448C151.414 531.448 150.918 531.544 150.47 531.736C150.033 531.928 149.654 532.221 149.334 532.616L147.878 531.496C148.315 530.909 148.902 530.456 149.638 530.136C150.385 529.805 151.217 529.64 152.134 529.64C152.945 529.64 153.649 529.773 154.246 530.04C154.854 530.296 155.318 530.664 155.638 531.144C155.969 531.624 156.134 532.195 156.134 532.856C156.134 533.219 156.086 533.581 155.99 533.944C155.894 534.296 155.713 534.669 155.446 535.064C155.179 535.459 154.79 535.901 154.278 536.392L150.454 540.024L150.022 539.24H156.566V541H148.31Z" fill="white" fill-opacity="0.5"/>
<path d="M138.708 563V553.2H145.26V553.844H139.422V563H138.708ZM139.338 558.674V558.03H144.644V558.674H139.338ZM150.024 563.056C149.287 563.056 148.634 562.897 148.064 562.58C147.504 562.263 147.061 561.824 146.734 561.264C146.417 560.704 146.258 560.065 146.258 559.346C146.258 558.618 146.408 557.979 146.706 557.428C147.014 556.868 147.434 556.429 147.966 556.112C148.498 555.795 149.096 555.636 149.758 555.636C150.421 555.636 151.014 555.79 151.536 556.098C152.068 556.406 152.484 556.84 152.782 557.4C153.09 557.951 153.244 558.59 153.244 559.318C153.244 559.346 153.24 559.379 153.23 559.416C153.23 559.444 153.23 559.477 153.23 559.514H146.776V558.968H152.852L152.572 559.234C152.582 558.665 152.46 558.156 152.208 557.708C151.966 557.251 151.634 556.896 151.214 556.644C150.794 556.383 150.309 556.252 149.758 556.252C149.217 556.252 148.732 556.383 148.302 556.644C147.882 556.896 147.551 557.251 147.308 557.708C147.066 558.156 146.944 558.669 146.944 559.248V559.374C146.944 559.971 147.075 560.503 147.336 560.97C147.607 561.427 147.976 561.787 148.442 562.048C148.909 562.3 149.441 562.426 150.038 562.426C150.505 562.426 150.939 562.342 151.34 562.174C151.751 562.006 152.096 561.749 152.376 561.404L152.782 561.866C152.465 562.258 152.064 562.557 151.578 562.762C151.102 562.958 150.584 563.056 150.024 563.056ZM159.078 563.056C158.434 563.056 157.85 562.907 157.328 562.608C156.814 562.309 156.404 561.88 156.096 561.32C155.797 560.76 155.648 560.102 155.648 559.346C155.648 558.571 155.797 557.909 156.096 557.358C156.404 556.807 156.814 556.383 157.328 556.084C157.85 555.785 158.434 555.636 159.078 555.636C159.768 555.636 160.384 555.795 160.926 556.112C161.476 556.42 161.906 556.854 162.214 557.414C162.531 557.965 162.69 558.609 162.69 559.346C162.69 560.074 162.531 560.718 162.214 561.278C161.906 561.838 161.476 562.277 160.926 562.594C160.384 562.902 159.768 563.056 159.078 563.056ZM155.41 563V552.612H156.11V558.058L155.97 559.332L156.082 560.606V563H155.41ZM159.036 562.426C159.596 562.426 160.1 562.3 160.548 562.048C160.996 561.787 161.346 561.423 161.598 560.956C161.859 560.489 161.99 559.953 161.99 559.346C161.99 558.73 161.859 558.193 161.598 557.736C161.346 557.269 160.996 556.91 160.548 556.658C160.1 556.397 159.596 556.266 159.036 556.266C158.476 556.266 157.972 556.397 157.524 556.658C157.085 556.91 156.735 557.269 156.474 557.736C156.222 558.193 156.096 558.73 156.096 559.346C156.096 559.953 156.222 560.489 156.474 560.956C156.735 561.423 157.085 561.787 157.524 562.048C157.972 562.3 158.476 562.426 159.036 562.426ZM164.857 563V555.692H165.529V557.694L165.459 557.47C165.664 556.882 166.01 556.429 166.495 556.112C166.98 555.795 167.587 555.636 168.315 555.636V556.322C168.287 556.322 168.259 556.322 168.231 556.322C168.203 556.313 168.175 556.308 168.147 556.308C167.335 556.308 166.7 556.565 166.243 557.078C165.786 557.582 165.557 558.287 165.557 559.192V563H164.857ZM173.335 563.056C172.709 563.056 172.168 562.944 171.711 562.72C171.253 562.487 170.899 562.141 170.647 561.684C170.404 561.217 170.283 560.643 170.283 559.962V555.692H170.983V559.906C170.983 560.727 171.193 561.353 171.613 561.782C172.033 562.211 172.625 562.426 173.391 562.426C173.941 562.426 174.417 562.309 174.819 562.076C175.22 561.843 175.528 561.516 175.743 561.096C175.957 560.667 176.065 560.163 176.065 559.584V555.692H176.765V563H176.093V560.97L176.191 561.208C175.976 561.777 175.617 562.23 175.113 562.566C174.618 562.893 174.025 563.056 173.335 563.056ZM184.338 563V561.334L184.31 561.082V558.338C184.31 557.657 184.123 557.139 183.75 556.784C183.386 556.429 182.849 556.252 182.14 556.252C181.636 556.252 181.165 556.341 180.726 556.518C180.297 556.686 179.928 556.905 179.62 557.176L179.27 556.672C179.634 556.345 180.073 556.093 180.586 555.916C181.099 555.729 181.636 555.636 182.196 555.636C183.101 555.636 183.797 555.865 184.282 556.322C184.767 556.779 185.01 557.461 185.01 558.366V563H184.338ZM181.706 563.056C181.165 563.056 180.693 562.972 180.292 562.804C179.9 562.627 179.597 562.379 179.382 562.062C179.177 561.745 179.074 561.381 179.074 560.97C179.074 560.597 179.158 560.261 179.326 559.962C179.503 559.654 179.793 559.407 180.194 559.22C180.595 559.024 181.132 558.926 181.804 558.926H184.492V559.472H181.818C181.062 559.472 180.53 559.612 180.222 559.892C179.923 560.172 179.774 560.522 179.774 560.942C179.774 561.409 179.951 561.782 180.306 562.062C180.661 562.342 181.16 562.482 181.804 562.482C182.42 562.482 182.938 562.342 183.358 562.062C183.787 561.782 184.105 561.376 184.31 560.844L184.506 561.32C184.31 561.852 183.974 562.277 183.498 562.594C183.031 562.902 182.434 563.056 181.706 563.056ZM187.894 563V555.692H188.566V557.694L188.496 557.47C188.701 556.882 189.047 556.429 189.532 556.112C190.017 555.795 190.624 555.636 191.352 555.636V556.322C191.324 556.322 191.296 556.322 191.268 556.322C191.24 556.313 191.212 556.308 191.184 556.308C190.372 556.308 189.737 556.565 189.28 557.078C188.823 557.582 188.594 558.287 188.594 559.192V563H187.894ZM193.099 565.772C192.763 565.772 192.446 565.716 192.147 565.604C191.858 565.492 191.611 565.329 191.405 565.114L191.755 564.582C191.942 564.778 192.143 564.923 192.357 565.016C192.581 565.109 192.833 565.156 193.113 565.156C193.449 565.156 193.743 565.063 193.995 564.876C194.257 564.689 194.499 564.349 194.723 563.854L195.227 562.734L195.325 562.608L198.419 555.692H199.133L195.381 563.994C195.185 564.442 194.971 564.792 194.737 565.044C194.513 565.305 194.266 565.492 193.995 565.604C193.725 565.716 193.426 565.772 193.099 565.772ZM195.213 563.182L191.825 555.692H192.567L195.647 562.566L195.213 563.182Z" fill="white"/>
<path d="M262.376 541.16C261.491 541.16 260.691 540.936 259.976 540.488C259.272 540.04 258.717 539.389 258.312 538.536C257.907 537.672 257.704 536.627 257.704 535.4C257.704 534.173 257.907 533.133 258.312 532.28C258.717 531.416 259.272 530.76 259.976 530.312C260.691 529.864 261.491 529.64 262.376 529.64C263.272 529.64 264.072 529.864 264.776 530.312C265.48 530.76 266.035 531.416 266.44 532.28C266.856 533.133 267.064 534.173 267.064 535.4C267.064 536.627 266.856 537.672 266.44 538.536C266.035 539.389 265.48 540.04 264.776 540.488C264.072 540.936 263.272 541.16 262.376 541.16ZM262.376 539.352C262.899 539.352 263.352 539.213 263.736 538.936C264.12 538.648 264.419 538.211 264.632 537.624C264.856 537.037 264.968 536.296 264.968 535.4C264.968 534.493 264.856 533.752 264.632 533.176C264.419 532.589 264.12 532.157 263.736 531.88C263.352 531.592 262.899 531.448 262.376 531.448C261.875 531.448 261.427 531.592 261.032 531.88C260.648 532.157 260.344 532.589 260.12 533.176C259.907 533.752 259.8 534.493 259.8 535.4C259.8 536.296 259.907 537.037 260.12 537.624C260.344 538.211 260.648 538.648 261.032 538.936C261.427 539.213 261.875 539.352 262.376 539.352ZM271.833 541.16C271.044 541.16 270.271 541.048 269.513 540.824C268.767 540.589 268.137 540.269 267.625 539.864L268.521 538.248C268.927 538.579 269.417 538.845 269.993 539.048C270.569 539.251 271.172 539.352 271.801 539.352C272.548 539.352 273.129 539.203 273.545 538.904C273.961 538.595 274.169 538.179 274.169 537.656C274.169 537.144 273.977 536.739 273.593 536.44C273.209 536.141 272.591 535.992 271.737 535.992H270.713V534.568L273.913 530.76L274.185 531.544H268.169V529.8H275.801V531.192L272.601 535L271.513 534.36H272.137C273.513 534.36 274.543 534.669 275.225 535.288C275.919 535.896 276.265 536.68 276.265 537.64C276.265 538.269 276.105 538.851 275.785 539.384C275.465 539.917 274.975 540.349 274.313 540.68C273.663 541 272.836 541.16 271.833 541.16Z" fill="white" fill-opacity="0.5"/>
<path d="M258.708 563V553.2H259.31L263.86 561.054H263.538L268.074 553.2H268.662L268.676 563H267.976L267.962 554.278H268.158L263.86 561.698H263.51L259.198 554.278H259.408V563H258.708ZM276.475 563V561.334L276.447 561.082V558.338C276.447 557.657 276.26 557.139 275.887 556.784C275.523 556.429 274.986 556.252 274.277 556.252C273.773 556.252 273.301 556.341 272.863 556.518C272.433 556.686 272.065 556.905 271.757 557.176L271.407 556.672C271.771 556.345 272.209 556.093 272.723 555.916C273.236 555.729 273.773 555.636 274.333 555.636C275.238 555.636 275.933 555.865 276.419 556.322C276.904 556.779 277.147 557.461 277.147 558.366V563H276.475ZM273.843 563.056C273.301 563.056 272.83 562.972 272.429 562.804C272.037 562.627 271.733 562.379 271.519 562.062C271.313 561.745 271.211 561.381 271.211 560.97C271.211 560.597 271.295 560.261 271.463 559.962C271.64 559.654 271.929 559.407 272.331 559.22C272.732 559.024 273.269 558.926 273.941 558.926H276.629V559.472H273.955C273.199 559.472 272.667 559.612 272.359 559.892C272.06 560.172 271.911 560.522 271.911 560.942C271.911 561.409 272.088 561.782 272.443 562.062C272.797 562.342 273.297 562.482 273.941 562.482C274.557 562.482 275.075 562.342 275.495 562.062C275.924 561.782 276.241 561.376 276.447 560.844L276.643 561.32C276.447 561.852 276.111 562.277 275.635 562.594C275.168 562.902 274.571 563.056 273.843 563.056ZM280.031 563V555.692H280.703V557.694L280.633 557.47C280.838 556.882 281.184 556.429 281.669 556.112C282.154 555.795 282.761 555.636 283.489 555.636V556.322C283.461 556.322 283.433 556.322 283.405 556.322C283.377 556.313 283.349 556.308 283.321 556.308C282.509 556.308 281.874 556.565 281.417 557.078C280.96 557.582 280.731 558.287 280.731 559.192V563H280.031ZM288.247 563.056C287.538 563.056 286.903 562.897 286.343 562.58C285.793 562.263 285.354 561.824 285.027 561.264C284.71 560.704 284.551 560.065 284.551 559.346C284.551 558.618 284.71 557.974 285.027 557.414C285.354 556.854 285.793 556.42 286.343 556.112C286.903 555.795 287.538 555.636 288.247 555.636C288.835 555.636 289.367 555.748 289.843 555.972C290.329 556.196 290.721 556.532 291.019 556.98L290.501 557.358C290.24 556.985 289.913 556.709 289.521 556.532C289.129 556.355 288.705 556.266 288.247 556.266C287.678 556.266 287.165 556.397 286.707 556.658C286.259 556.91 285.905 557.269 285.643 557.736C285.391 558.193 285.265 558.73 285.265 559.346C285.265 559.962 285.391 560.503 285.643 560.97C285.905 561.427 286.259 561.787 286.707 562.048C287.165 562.3 287.678 562.426 288.247 562.426C288.705 562.426 289.129 562.337 289.521 562.16C289.913 561.983 290.24 561.707 290.501 561.334L291.019 561.712C290.721 562.16 290.329 562.496 289.843 562.72C289.367 562.944 288.835 563.056 288.247 563.056ZM292.992 563V552.612H293.692V557.722L293.566 557.498C293.79 556.919 294.158 556.467 294.672 556.14C295.185 555.804 295.815 555.636 296.562 555.636C297.159 555.636 297.677 555.753 298.116 555.986C298.564 556.21 298.909 556.555 299.152 557.022C299.404 557.479 299.53 558.049 299.53 558.73V563H298.83V558.786C298.83 557.965 298.62 557.339 298.2 556.91C297.789 556.481 297.21 556.266 296.464 556.266C295.894 556.266 295.4 556.383 294.98 556.616C294.56 556.849 294.238 557.176 294.014 557.596C293.799 558.016 293.692 558.52 293.692 559.108V563H292.992Z" fill="white"/>
<path d="M382.376 541.16C381.491 541.16 380.691 540.936 379.976 540.488C379.272 540.04 378.717 539.389 378.312 538.536C377.907 537.672 377.704 536.627 377.704 535.4C377.704 534.173 377.907 533.133 378.312 532.28C378.717 531.416 379.272 530.76 379.976 530.312C380.691 529.864 381.491 529.64 382.376 529.64C383.272 529.64 384.072 529.864 384.776 530.312C385.48 530.76 386.035 531.416 386.44 532.28C386.856 533.133 387.064 534.173 387.064 535.4C387.064 536.627 386.856 537.672 386.44 538.536C386.035 539.389 385.48 540.04 384.776 540.488C384.072 540.936 383.272 541.16 382.376 541.16ZM382.376 539.352C382.899 539.352 383.352 539.213 383.736 538.936C384.12 538.648 384.419 538.211 384.632 537.624C384.856 537.037 384.968 536.296 384.968 535.4C384.968 534.493 384.856 533.752 384.632 533.176C384.419 532.589 384.12 532.157 383.736 531.88C383.352 531.592 382.899 531.448 382.376 531.448C381.875 531.448 381.427 531.592 381.032 531.88C380.648 532.157 380.344 532.589 380.12 533.176C379.907 533.752 379.8 534.493 379.8 535.4C379.8 536.296 379.907 537.037 380.12 537.624C380.344 538.211 380.648 538.648 381.032 538.936C381.427 539.213 381.875 539.352 382.376 539.352ZM388.31 538.456V537.016L393.83 529.8H396.054L390.614 537.016L389.574 536.696H398.454V538.456H388.31ZM394.454 541V538.456L394.518 536.696V534.44H396.47V541H394.454Z" fill="white" fill-opacity="0.5"/>
<path d="M377.07 563L381.578 553.2H382.292L386.8 563H386.03L381.774 553.648H382.082L377.84 563H377.07ZM378.722 560.242L378.96 559.64H384.826L385.064 560.242H378.722ZM392.023 563.056C391.379 563.056 390.796 562.907 390.273 562.608C389.76 562.309 389.349 561.885 389.041 561.334C388.742 560.774 388.593 560.111 388.593 559.346C388.593 558.581 388.742 557.923 389.041 557.372C389.349 556.812 389.76 556.383 390.273 556.084C390.796 555.785 391.379 555.636 392.023 555.636C392.714 555.636 393.33 555.795 393.871 556.112C394.422 556.42 394.851 556.854 395.159 557.414C395.476 557.974 395.635 558.618 395.635 559.346C395.635 560.074 395.476 560.718 395.159 561.278C394.851 561.838 394.422 562.277 393.871 562.594C393.33 562.902 392.714 563.056 392.023 563.056ZM388.355 565.716V555.692H389.027V558.086L388.915 559.36L389.055 560.634V565.716H388.355ZM391.981 562.426C392.541 562.426 393.045 562.3 393.493 562.048C393.941 561.787 394.291 561.423 394.543 560.956C394.804 560.489 394.935 559.953 394.935 559.346C394.935 558.73 394.804 558.193 394.543 557.736C394.291 557.269 393.941 556.91 393.493 556.658C393.045 556.397 392.541 556.266 391.981 556.266C391.421 556.266 390.917 556.397 390.469 556.658C390.03 556.91 389.68 557.269 389.419 557.736C389.167 558.193 389.041 558.73 389.041 559.346C389.041 559.953 389.167 560.489 389.419 560.956C389.68 561.423 390.03 561.787 390.469 562.048C390.917 562.3 391.421 562.426 391.981 562.426ZM397.802 563V555.692H398.474V557.694L398.404 557.47C398.61 556.882 398.955 556.429 399.44 556.112C399.926 555.795 400.532 555.636 401.26 555.636V556.322C401.232 556.322 401.204 556.322 401.176 556.322C401.148 556.313 401.12 556.308 401.092 556.308C400.28 556.308 399.646 556.565 399.188 557.078C398.731 557.582 398.502 558.287 398.502 559.192V563H397.802ZM403.189 563V555.692H403.889V563H403.189ZM403.539 553.914C403.38 553.914 403.245 553.858 403.133 553.746C403.021 553.634 402.965 553.503 402.965 553.354C402.965 553.195 403.021 553.06 403.133 552.948C403.245 552.836 403.38 552.78 403.539 552.78C403.707 552.78 403.842 552.836 403.945 552.948C404.057 553.051 404.113 553.181 404.113 553.34C404.113 553.499 404.057 553.634 403.945 553.746C403.842 553.858 403.707 553.914 403.539 553.914ZM406.839 563V552.612H407.539V563H406.839Z" fill="white"/>
<path d="M502.376 541.16C501.491 541.16 500.691 540.936 499.976 540.488C499.272 540.04 498.717 539.389 498.312 538.536C497.907 537.672 497.704 536.627 497.704 535.4C497.704 534.173 497.907 533.133 498.312 532.28C498.717 531.416 499.272 530.76 499.976 530.312C500.691 529.864 501.491 529.64 502.376 529.64C503.272 529.64 504.072 529.864 504.776 530.312C505.48 530.76 506.035 531.416 506.44 532.28C506.856 533.133 507.064 534.173 507.064 535.4C507.064 536.627 506.856 537.672 506.44 538.536C506.035 539.389 505.48 540.04 504.776 540.488C504.072 540.936 503.272 541.16 502.376 541.16ZM502.376 539.352C502.899 539.352 503.352 539.213 503.736 538.936C504.12 538.648 504.419 538.211 504.632 537.624C504.856 537.037 504.968 536.296 504.968 535.4C504.968 534.493 504.856 533.752 504.632 533.176C504.419 532.589 504.12 532.157 503.736 531.88C503.352 531.592 502.899 531.448 502.376 531.448C501.875 531.448 501.427 531.592 501.032 531.88C500.648 532.157 500.344 532.589 500.12 533.176C499.907 533.752 499.8 534.493 499.8 535.4C499.8 536.296 499.907 537.037 500.12 537.624C500.344 538.211 500.648 538.648 501.032 538.936C501.427 539.213 501.875 539.352 502.376 539.352ZM512.182 541.16C511.392 541.16 510.619 541.048 509.862 540.824C509.115 540.589 508.486 540.269 507.974 539.864L508.854 538.248C509.259 538.579 509.75 538.845 510.326 539.048C510.912 539.251 511.52 539.352 512.15 539.352C512.886 539.352 513.462 539.197 513.878 538.888C514.304 538.579 514.518 538.163 514.518 537.64C514.518 537.288 514.427 536.979 514.246 536.712C514.075 536.445 513.766 536.243 513.318 536.104C512.88 535.965 512.278 535.896 511.51 535.896H508.806L509.382 529.8H515.958V531.544H510.15L511.238 530.552L510.806 535.112L509.718 534.136H511.974C513.083 534.136 513.974 534.285 514.646 534.584C515.328 534.872 515.824 535.277 516.134 535.8C516.454 536.312 516.614 536.899 516.614 537.56C516.614 538.211 516.454 538.808 516.134 539.352C515.814 539.896 515.323 540.333 514.662 540.664C514.011 540.995 513.184 541.16 512.182 541.16Z" fill="white" fill-opacity="0.5"/>
<path d="M498.708 563V553.2H499.31L503.86 561.054H503.538L508.074 553.2H508.662L508.676 563H507.976L507.962 554.278H508.158L503.86 561.698H503.51L499.198 554.278H499.408V563H498.708ZM516.475 563V561.334L516.447 561.082V558.338C516.447 557.657 516.26 557.139 515.887 556.784C515.523 556.429 514.986 556.252 514.277 556.252C513.773 556.252 513.301 556.341 512.863 556.518C512.433 556.686 512.065 556.905 511.757 557.176L511.407 556.672C511.771 556.345 512.209 556.093 512.723 555.916C513.236 555.729 513.773 555.636 514.333 555.636C515.238 555.636 515.933 555.865 516.419 556.322C516.904 556.779 517.147 557.461 517.147 558.366V563H516.475ZM513.843 563.056C513.301 563.056 512.83 562.972 512.429 562.804C512.037 562.627 511.733 562.379 511.519 562.062C511.313 561.745 511.211 561.381 511.211 560.97C511.211 560.597 511.295 560.261 511.463 559.962C511.64 559.654 511.929 559.407 512.331 559.22C512.732 559.024 513.269 558.926 513.941 558.926H516.629V559.472H513.955C513.199 559.472 512.667 559.612 512.359 559.892C512.06 560.172 511.911 560.522 511.911 560.942C511.911 561.409 512.088 561.782 512.443 562.062C512.797 562.342 513.297 562.482 513.941 562.482C514.557 562.482 515.075 562.342 515.495 562.062C515.924 561.782 516.241 561.376 516.447 560.844L516.643 561.32C516.447 561.852 516.111 562.277 515.635 562.594C515.168 562.902 514.571 563.056 513.843 563.056ZM519.548 565.772C519.212 565.772 518.895 565.716 518.596 565.604C518.307 565.492 518.06 565.329 517.854 565.114L518.204 564.582C518.391 564.778 518.592 564.923 518.806 565.016C519.03 565.109 519.282 565.156 519.562 565.156C519.898 565.156 520.192 565.063 520.444 564.876C520.706 564.689 520.948 564.349 521.172 563.854L521.676 562.734L521.774 562.608L524.868 555.692H525.582L521.83 563.994C521.634 564.442 521.42 564.792 521.186 565.044C520.962 565.305 520.715 565.492 520.444 565.604C520.174 565.716 519.875 565.772 519.548 565.772ZM521.662 563.182L518.274 555.692H519.016L522.096 562.566L521.662 563.182Z" fill="white"/>
<path d="M622.376 541.16C621.491 541.16 620.691 540.936 619.976 540.488C619.272 540.04 618.717 539.389 618.312 538.536C617.907 537.672 617.704 536.627 617.704 535.4C617.704 534.173 617.907 533.133 618.312 532.28C618.717 531.416 619.272 530.76 619.976 530.312C620.691 529.864 621.491 529.64 622.376 529.64C623.272 529.64 624.072 529.864 624.776 530.312C625.48 530.76 626.035 531.416 626.44 532.28C626.856 533.133 627.064 534.173 627.064 535.4C627.064 536.627 626.856 537.672 626.44 538.536C626.035 539.389 625.48 540.04 624.776 540.488C624.072 540.936 623.272 541.16 622.376 541.16ZM622.376 539.352C622.899 539.352 623.352 539.213 623.736 538.936C624.12 538.648 624.419 538.211 624.632 537.624C624.856 537.037 624.968 536.296 624.968 535.4C624.968 534.493 624.856 533.752 624.632 533.176C624.419 532.589 624.12 532.157 623.736 531.88C623.352 531.592 622.899 531.448 622.376 531.448C621.875 531.448 621.427 531.592 621.032 531.88C620.648 532.157 620.344 532.589 620.12 533.176C619.907 533.752 619.8 534.493 619.8 535.4C619.8 536.296 619.907 537.037 620.12 537.624C620.344 538.211 620.648 538.648 621.032 538.936C621.427 539.213 621.875 539.352 622.376 539.352ZM633.318 541.16C632.304 541.16 631.435 540.947 630.71 540.52C629.984 540.083 629.43 539.453 629.046 538.632C628.662 537.811 628.47 536.797 628.47 535.592C628.47 534.312 628.699 533.229 629.158 532.344C629.627 531.459 630.272 530.787 631.094 530.328C631.926 529.869 632.88 529.64 633.958 529.64C634.523 529.64 635.062 529.699 635.574 529.816C636.096 529.933 636.539 530.115 636.902 530.36L636.134 531.928C635.824 531.725 635.488 531.587 635.126 531.512C634.774 531.427 634.4 531.384 634.006 531.384C632.95 531.384 632.112 531.709 631.494 532.36C630.875 533.011 630.566 533.971 630.566 535.24C630.566 535.443 630.571 535.683 630.582 535.96C630.592 536.227 630.63 536.499 630.694 536.776L630.054 536.072C630.246 535.635 630.507 535.272 630.838 534.984C631.179 534.685 631.579 534.461 632.038 534.312C632.507 534.163 633.014 534.088 633.558 534.088C634.294 534.088 634.95 534.232 635.526 534.52C636.102 534.797 636.56 535.197 636.902 535.72C637.243 536.232 637.414 536.835 637.414 537.528C637.414 538.264 637.232 538.904 636.87 539.448C636.507 539.992 636.016 540.413 635.398 540.712C634.779 541.011 634.086 541.16 633.318 541.16ZM633.206 539.528C633.632 539.528 634.011 539.453 634.342 539.304C634.672 539.144 634.928 538.92 635.11 538.632C635.302 538.344 635.398 538.008 635.398 537.624C635.398 537.037 635.195 536.573 634.79 536.232C634.384 535.891 633.84 535.72 633.158 535.72C632.71 535.72 632.315 535.805 631.974 535.976C631.643 536.136 631.376 536.36 631.174 536.648C630.982 536.936 630.886 537.267 630.886 537.64C630.886 537.981 630.976 538.296 631.158 538.584C631.339 538.872 631.6 539.101 631.942 539.272C632.294 539.443 632.715 539.528 633.206 539.528Z" fill="white" fill-opacity="0.5"/>
<path d="M619.59 563.07C619.058 563.07 618.559 562.949 618.092 562.706C617.635 562.454 617.266 562.109 616.986 561.67L617.42 561.194C617.691 561.595 618.008 561.903 618.372 562.118C618.745 562.323 619.151 562.426 619.59 562.426C620.887 562.426 621.536 561.656 621.536 560.116V553.844H617.924V553.2H622.25V560.116C622.25 561.096 622.026 561.833 621.578 562.328C621.13 562.823 620.467 563.07 619.59 563.07ZM628.329 563.056C627.704 563.056 627.162 562.944 626.705 562.72C626.248 562.487 625.893 562.141 625.641 561.684C625.398 561.217 625.277 560.643 625.277 559.962V555.692H625.977V559.906C625.977 560.727 626.187 561.353 626.607 561.782C627.027 562.211 627.62 562.426 628.385 562.426C628.936 562.426 629.412 562.309 629.813 562.076C630.214 561.843 630.522 561.516 630.737 561.096C630.952 560.667 631.059 560.163 631.059 559.584V555.692H631.759V563H631.087V560.97L631.185 561.208C630.97 561.777 630.611 562.23 630.107 562.566C629.612 562.893 629.02 563.056 628.329 563.056ZM634.726 563V555.692H635.398V557.722L635.3 557.498C635.524 556.919 635.893 556.467 636.406 556.14C636.92 555.804 637.55 555.636 638.296 555.636C638.894 555.636 639.412 555.753 639.85 555.986C640.298 556.21 640.644 556.555 640.886 557.022C641.138 557.479 641.264 558.049 641.264 558.73V563H640.564V558.786C640.564 557.965 640.354 557.339 639.934 556.91C639.524 556.481 638.945 556.266 638.198 556.266C637.629 556.266 637.134 556.383 636.714 556.616C636.294 556.849 635.972 557.176 635.748 557.596C635.534 558.016 635.426 558.52 635.426 559.108V563H634.726ZM647.114 563.056C646.377 563.056 645.723 562.897 645.154 562.58C644.594 562.263 644.151 561.824 643.824 561.264C643.507 560.704 643.348 560.065 643.348 559.346C643.348 558.618 643.497 557.979 643.796 557.428C644.104 556.868 644.524 556.429 645.056 556.112C645.588 555.795 646.185 555.636 646.848 555.636C647.511 555.636 648.103 555.79 648.626 556.098C649.158 556.406 649.573 556.84 649.872 557.4C650.18 557.951 650.334 558.59 650.334 559.318C650.334 559.346 650.329 559.379 650.32 559.416C650.32 559.444 650.32 559.477 650.32 559.514H643.866V558.968H649.942L649.662 559.234C649.671 558.665 649.55 558.156 649.298 557.708C649.055 557.251 648.724 556.896 648.304 556.644C647.884 556.383 647.399 556.252 646.848 556.252C646.307 556.252 645.821 556.383 645.392 556.644C644.972 556.896 644.641 557.251 644.398 557.708C644.155 558.156 644.034 558.669 644.034 559.248V559.374C644.034 559.971 644.165 560.503 644.426 560.97C644.697 561.427 645.065 561.787 645.532 562.048C645.999 562.3 646.531 562.426 647.128 562.426C647.595 562.426 648.029 562.342 648.43 562.174C648.841 562.006 649.186 561.749 649.466 561.404L649.872 561.866C649.555 562.258 649.153 562.557 648.668 562.762C648.192 562.958 647.674 563.056 647.114 563.056Z" fill="white"/>
<path d="M742.376 541.16C741.491 541.16 740.691 540.936 739.976 540.488C739.272 540.04 738.717 539.389 738.312 538.536C737.907 537.672 737.704 536.627 737.704 535.4C737.704 534.173 737.907 533.133 738.312 532.28C738.717 531.416 739.272 530.76 739.976 530.312C740.691 529.864 741.491 529.64 742.376 529.64C743.272 529.64 744.072 529.864 744.776 530.312C745.48 530.76 746.035 531.416 746.44 532.28C746.856 533.133 747.064 534.173 747.064 535.4C747.064 536.627 746.856 537.672 746.44 538.536C746.035 539.389 745.48 540.04 744.776 540.488C744.072 540.936 743.272 541.16 742.376 541.16ZM742.376 539.352C742.899 539.352 743.352 539.213 743.736 538.936C744.12 538.648 744.419 538.211 744.632 537.624C744.856 537.037 744.968 536.296 744.968 535.4C744.968 534.493 744.856 533.752 744.632 533.176C744.419 532.589 744.12 532.157 743.736 531.88C743.352 531.592 742.899 531.448 742.376 531.448C741.875 531.448 741.427 531.592 741.032 531.88C740.648 532.157 740.344 532.589 740.12 533.176C739.907 533.752 739.8 534.493 739.8 535.4C739.8 536.296 739.907 537.037 740.12 537.624C740.344 538.211 740.648 538.648 741.032 538.936C741.427 539.213 741.875 539.352 742.376 539.352ZM750.264 541L754.888 530.632L755.432 531.56H749.08L750.072 530.552V533.464H748.136V529.8H756.84V531.192L752.488 541H750.264Z" fill="white" fill-opacity="0.5"/>
<path d="M739.59 563.07C739.058 563.07 738.559 562.949 738.092 562.706C737.635 562.454 737.266 562.109 736.986 561.67L737.42 561.194C737.691 561.595 738.008 561.903 738.372 562.118C738.745 562.323 739.151 562.426 739.59 562.426C740.887 562.426 741.536 561.656 741.536 560.116V553.844H737.924V553.2H742.25V560.116C742.25 561.096 742.026 561.833 741.578 562.328C741.13 562.823 740.467 563.07 739.59 563.07ZM748.329 563.056C747.704 563.056 747.162 562.944 746.705 562.72C746.248 562.487 745.893 562.141 745.641 561.684C745.398 561.217 745.277 560.643 745.277 559.962V555.692H745.977V559.906C745.977 560.727 746.187 561.353 746.607 561.782C747.027 562.211 747.62 562.426 748.385 562.426C748.936 562.426 749.412 562.309 749.813 562.076C750.214 561.843 750.522 561.516 750.737 561.096C750.952 560.667 751.059 560.163 751.059 559.584V555.692H751.759V563H751.087V560.97L751.185 561.208C750.97 561.777 750.611 562.23 750.107 562.566C749.612 562.893 749.02 563.056 748.329 563.056ZM754.726 563V552.612H755.426V563H754.726ZM758.113 565.772C757.777 565.772 757.46 565.716 757.161 565.604C756.872 565.492 756.624 565.329 756.419 565.114L756.769 564.582C756.956 564.778 757.156 564.923 757.371 565.016C757.595 565.109 757.847 565.156 758.127 565.156C758.463 565.156 758.757 565.063 759.009 564.876C759.27 564.689 759.513 564.349 759.737 563.854L760.241 562.734L760.339 562.608L763.433 555.692H764.147L760.395 563.994C760.199 564.442 759.984 564.792 759.751 565.044C759.527 565.305 759.28 565.492 759.009 565.604C758.738 565.716 758.44 565.772 758.113 565.772ZM760.227 563.182L756.839 555.692H757.581L760.661 562.566L760.227 563.182Z" fill="white"/>
<path d="M862.376 541.16C861.491 541.16 860.691 540.936 859.976 540.488C859.272 540.04 858.717 539.389 858.312 538.536C857.907 537.672 857.704 536.627 857.704 535.4C857.704 534.173 857.907 533.133 858.312 532.28C858.717 531.416 859.272 530.76 859.976 530.312C860.691 529.864 861.491 529.64 862.376 529.64C863.272 529.64 864.072 529.864 864.776 530.312C865.48 530.76 866.035 531.416 866.44 532.28C866.856 533.133 867.064 534.173 867.064 535.4C867.064 536.627 866.856 537.672 866.44 538.536C866.035 539.389 865.48 540.04 864.776 540.488C864.072 540.936 863.272 541.16 862.376 541.16ZM862.376 539.352C862.899 539.352 863.352 539.213 863.736 538.936C864.12 538.648 864.419 538.211 864.632 537.624C864.856 537.037 864.968 536.296 864.968 535.4C864.968 534.493 864.856 533.752 864.632 533.176C864.419 532.589 864.12 532.157 863.736 531.88C863.352 531.592 862.899 531.448 862.376 531.448C861.875 531.448 861.427 531.592 861.032 531.88C860.648 532.157 860.344 532.589 860.12 533.176C859.907 533.752 859.8 534.493 859.8 535.4C859.8 536.296 859.907 537.037 860.12 537.624C860.344 538.211 860.648 538.648 861.032 538.936C861.427 539.213 861.875 539.352 862.376 539.352ZM872.966 541.16C872.038 541.16 871.232 541.021 870.55 540.744C869.867 540.467 869.339 540.077 868.966 539.576C868.592 539.064 868.406 538.467 868.406 537.784C868.406 537.101 868.587 536.525 868.95 536.056C869.312 535.587 869.835 535.229 870.518 534.984C871.2 534.739 872.016 534.616 872.966 534.616C873.915 534.616 874.731 534.739 875.414 534.984C876.107 535.229 876.635 535.592 876.998 536.072C877.371 536.541 877.558 537.112 877.558 537.784C877.558 538.467 877.366 539.064 876.982 539.576C876.608 540.077 876.075 540.467 875.382 540.744C874.699 541.021 873.894 541.16 872.966 541.16ZM872.966 539.528C873.734 539.528 874.342 539.368 874.79 539.048C875.238 538.728 875.462 538.285 875.462 537.72C875.462 537.165 875.238 536.728 874.79 536.408C874.342 536.088 873.734 535.928 872.966 535.928C872.198 535.928 871.595 536.088 871.158 536.408C870.72 536.728 870.502 537.165 870.502 537.72C870.502 538.285 870.72 538.728 871.158 539.048C871.595 539.368 872.198 539.528 872.966 539.528ZM872.966 534.424C873.627 534.424 874.15 534.285 874.534 534.008C874.918 533.72 875.11 533.336 875.11 532.856C875.11 532.355 874.912 531.965 874.518 531.688C874.123 531.411 873.606 531.272 872.966 531.272C872.326 531.272 871.814 531.411 871.43 531.688C871.046 531.965 870.854 532.355 870.854 532.856C870.854 533.336 871.04 533.72 871.414 534.008C871.798 534.285 872.315 534.424 872.966 534.424ZM872.966 535.704C872.102 535.704 871.36 535.592 870.742 535.368C870.123 535.133 869.643 534.797 869.302 534.36C868.971 533.912 868.806 533.379 868.806 532.76C868.806 532.12 868.976 531.571 869.318 531.112C869.67 530.643 870.16 530.28 870.79 530.024C871.419 529.768 872.144 529.64 872.966 529.64C873.798 529.64 874.528 529.768 875.158 530.024C875.787 530.28 876.278 530.643 876.63 531.112C876.982 531.571 877.158 532.12 877.158 532.76C877.158 533.379 876.987 533.912 876.646 534.36C876.315 534.797 875.835 535.133 875.206 535.368C874.576 535.592 873.83 535.704 872.966 535.704Z" fill="white" fill-opacity="0.5"/>
<path d="M857.07 563L861.578 553.2H862.292L866.8 563H866.03L861.774 553.648H862.082L857.84 563H857.07ZM858.722 560.242L858.96 559.64H864.826L865.064 560.242H858.722ZM871.186 563.056C870.561 563.056 870.02 562.944 869.562 562.72C869.105 562.487 868.75 562.141 868.498 561.684C868.256 561.217 868.134 560.643 868.134 559.962V555.692H868.834V559.906C868.834 560.727 869.044 561.353 869.464 561.782C869.884 562.211 870.477 562.426 871.242 562.426C871.793 562.426 872.269 562.309 872.67 562.076C873.072 561.843 873.38 561.516 873.594 561.096C873.809 560.667 873.916 560.163 873.916 559.584V555.692H874.616V563H873.944V560.97L874.042 561.208C873.828 561.777 873.468 562.23 872.964 562.566C872.47 562.893 871.877 563.056 871.186 563.056ZM880.622 565.772C879.959 565.772 879.329 565.669 878.732 565.464C878.134 565.259 877.649 564.974 877.276 564.61L877.654 564.078C878.018 564.414 878.452 564.675 878.956 564.862C879.469 565.049 880.02 565.142 880.608 565.142C881.588 565.142 882.306 564.913 882.764 564.456C883.23 563.999 883.464 563.28 883.464 562.3V560.27L883.604 559.178L883.492 558.086V555.692H884.164V562.216C884.164 563.439 883.865 564.335 883.268 564.904C882.68 565.483 881.798 565.772 880.622 565.772ZM880.426 562.734C879.735 562.734 879.114 562.585 878.564 562.286C878.022 561.978 877.588 561.558 877.262 561.026C876.944 560.485 876.786 559.869 876.786 559.178C876.786 558.478 876.944 557.862 877.262 557.33C877.588 556.798 878.022 556.383 878.564 556.084C879.114 555.785 879.735 555.636 880.426 555.636C881.088 555.636 881.681 555.781 882.204 556.07C882.736 556.35 883.156 556.756 883.464 557.288C883.772 557.811 883.926 558.441 883.926 559.178C883.926 559.906 883.772 560.536 883.464 561.068C883.156 561.6 882.736 562.011 882.204 562.3C881.681 562.589 881.088 562.734 880.426 562.734ZM880.482 562.104C881.07 562.104 881.588 561.983 882.036 561.74C882.484 561.488 882.834 561.143 883.086 560.704C883.347 560.256 883.478 559.747 883.478 559.178C883.478 558.599 883.347 558.091 883.086 557.652C882.834 557.213 882.484 556.873 882.036 556.63C881.588 556.387 881.07 556.266 880.482 556.266C879.912 556.266 879.399 556.387 878.942 556.63C878.494 556.873 878.139 557.213 877.878 557.652C877.626 558.091 877.5 558.599 877.5 559.178C877.5 559.747 877.626 560.256 877.878 560.704C878.139 561.143 878.494 561.488 878.942 561.74C879.399 561.983 879.912 562.104 880.482 562.104ZM890.095 563.056C889.469 563.056 888.928 562.944 888.471 562.72C888.013 562.487 887.659 562.141 887.407 561.684C887.164 561.217 887.043 560.643 887.043 559.962V555.692H887.743V559.906C887.743 560.727 887.953 561.353 888.373 561.782C888.793 562.211 889.385 562.426 890.151 562.426C890.701 562.426 891.177 562.309 891.579 562.076C891.98 561.843 892.288 561.516 892.503 561.096C892.717 560.667 892.825 560.163 892.825 559.584V555.692H893.525V563H892.853V560.97L892.951 561.208C892.736 561.777 892.377 562.23 891.873 562.566C891.378 562.893 890.785 563.056 890.095 563.056ZM898.34 563.056C897.733 563.056 897.164 562.967 896.632 562.79C896.109 562.613 895.703 562.389 895.414 562.118L895.736 561.558C896.016 561.801 896.389 562.011 896.856 562.188C897.322 562.356 897.826 562.44 898.368 562.44C899.133 562.44 899.684 562.314 900.02 562.062C900.356 561.81 900.524 561.479 900.524 561.068C900.524 560.769 900.435 560.536 900.258 560.368C900.09 560.191 899.861 560.055 899.572 559.962C899.282 559.869 898.965 559.794 898.62 559.738C898.274 559.673 897.929 559.603 897.584 559.528C897.238 559.453 896.921 559.346 896.632 559.206C896.342 559.066 896.109 558.875 895.932 558.632C895.764 558.38 895.68 558.049 895.68 557.638C895.68 557.265 895.782 556.929 895.988 556.63C896.193 556.331 896.501 556.093 896.912 555.916C897.322 555.729 897.836 555.636 898.452 555.636C898.909 555.636 899.366 555.701 899.824 555.832C900.29 555.963 900.668 556.135 900.958 556.35L900.636 556.91C900.328 556.677 899.982 556.509 899.6 556.406C899.217 556.303 898.83 556.252 898.438 556.252C897.728 556.252 897.206 556.383 896.87 556.644C896.543 556.905 896.38 557.232 896.38 557.624C896.38 557.932 896.464 558.179 896.632 558.366C896.809 558.543 897.042 558.683 897.332 558.786C897.621 558.879 897.938 558.959 898.284 559.024C898.629 559.08 898.974 559.145 899.32 559.22C899.665 559.295 899.982 559.402 900.272 559.542C900.561 559.673 900.79 559.859 900.958 560.102C901.135 560.335 901.224 560.653 901.224 561.054C901.224 561.455 901.112 561.805 900.888 562.104C900.673 562.403 900.351 562.636 899.922 562.804C899.492 562.972 898.965 563.056 898.34 563.056ZM905.305 563.056C904.661 563.056 904.167 562.879 903.821 562.524C903.485 562.169 903.317 561.684 903.317 561.068V554.096H904.017V560.998C904.017 561.465 904.134 561.824 904.367 562.076C904.601 562.328 904.937 562.454 905.375 562.454C905.833 562.454 906.211 562.319 906.509 562.048L906.803 562.538C906.617 562.715 906.388 562.846 906.117 562.93C905.856 563.014 905.585 563.056 905.305 563.056ZM901.973 556.294V555.692H906.341V556.294H901.973Z" fill="white"/>
<path d="M982.376 541.16C981.491 541.16 980.691 540.936 979.976 540.488C979.272 540.04 978.717 539.389 978.312 538.536C977.907 537.672 977.704 536.627 977.704 535.4C977.704 534.173 977.907 533.133 978.312 532.28C978.717 531.416 979.272 530.76 979.976 530.312C980.691 529.864 981.491 529.64 982.376 529.64C983.272 529.64 984.072 529.864 984.776 530.312C985.48 530.76 986.035 531.416 986.44 532.28C986.856 533.133 987.064 534.173 987.064 535.4C987.064 536.627 986.856 537.672 986.44 538.536C986.035 539.389 985.48 540.04 984.776 540.488C984.072 540.936 983.272 541.16 982.376 541.16ZM982.376 539.352C982.899 539.352 983.352 539.213 983.736 538.936C984.12 538.648 984.419 538.211 984.632 537.624C984.856 537.037 984.968 536.296 984.968 535.4C984.968 534.493 984.856 533.752 984.632 533.176C984.419 532.589 984.12 532.157 983.736 531.88C983.352 531.592 982.899 531.448 982.376 531.448C981.875 531.448 981.427 531.592 981.032 531.88C980.648 532.157 980.344 532.589 980.12 533.176C979.907 533.752 979.8 534.493 979.8 535.4C979.8 536.296 979.907 537.037 980.12 537.624C980.344 538.211 980.648 538.648 981.032 538.936C981.427 539.213 981.875 539.352 982.376 539.352ZM991.606 541.16C991.04 541.16 990.502 541.101 989.99 540.984C989.478 540.867 989.035 540.685 988.662 540.44L989.43 538.872C989.739 539.075 990.075 539.219 990.438 539.304C990.8 539.379 991.174 539.416 991.558 539.416C992.614 539.416 993.451 539.091 994.07 538.44C994.688 537.789 994.998 536.829 994.998 535.56C994.998 535.357 994.992 535.123 994.982 534.856C994.971 534.579 994.934 534.301 994.87 534.024L995.51 534.728C995.328 535.165 995.067 535.533 994.726 535.832C994.384 536.12 993.984 536.339 993.526 536.488C993.067 536.637 992.56 536.712 992.006 536.712C991.28 536.712 990.624 536.573 990.038 536.296C989.462 536.008 989.003 535.608 988.662 535.096C988.32 534.573 988.15 533.965 988.15 533.272C988.15 532.525 988.331 531.885 988.694 531.352C989.056 530.808 989.547 530.387 990.166 530.088C990.795 529.789 991.488 529.64 992.246 529.64C993.27 529.64 994.139 529.859 994.854 530.296C995.579 530.723 996.134 531.347 996.518 532.168C996.902 532.989 997.094 534.003 997.094 535.208C997.094 536.488 996.859 537.571 996.39 538.456C995.931 539.341 995.291 540.013 994.47 540.472C993.648 540.931 992.694 541.16 991.606 541.16ZM992.406 535.08C992.854 535.08 993.248 535 993.59 534.84C993.931 534.669 994.198 534.44 994.39 534.152C994.582 533.853 994.678 533.523 994.678 533.16C994.678 532.808 994.587 532.493 994.406 532.216C994.224 531.928 993.963 531.699 993.622 531.528C993.28 531.357 992.859 531.272 992.358 531.272C991.931 531.272 991.552 531.352 991.222 531.512C990.891 531.661 990.63 531.88 990.438 532.168C990.256 532.445 990.166 532.781 990.166 533.176C990.166 533.763 990.368 534.227 990.774 534.568C991.179 534.909 991.723 535.08 992.406 535.08Z" fill="white" fill-opacity="0.5"/>
<path d="M981.284 563.07C980.556 563.07 979.865 562.949 979.212 562.706C978.568 562.454 978.069 562.132 977.714 561.74L978.036 561.208C978.372 561.553 978.829 561.847 979.408 562.09C979.996 562.323 980.617 562.44 981.27 562.44C981.923 562.44 982.455 562.356 982.866 562.188C983.286 562.011 983.594 561.777 983.79 561.488C983.995 561.199 984.098 560.877 984.098 560.522C984.098 560.102 983.986 559.766 983.762 559.514C983.538 559.262 983.244 559.061 982.88 558.912C982.516 558.763 982.119 558.637 981.69 558.534C981.261 558.431 980.827 558.324 980.388 558.212C979.949 558.091 979.548 557.937 979.184 557.75C978.82 557.563 978.526 557.311 978.302 556.994C978.087 556.667 977.98 556.247 977.98 555.734C977.98 555.267 978.101 554.838 978.344 554.446C978.587 554.054 978.965 553.737 979.478 553.494C979.991 553.251 980.649 553.13 981.452 553.13C981.993 553.13 982.525 553.209 983.048 553.368C983.58 553.527 984.033 553.741 984.406 554.012L984.14 554.586C983.729 554.306 983.286 554.101 982.81 553.97C982.343 553.83 981.891 553.76 981.452 553.76C980.827 553.76 980.309 553.849 979.898 554.026C979.487 554.203 979.184 554.441 978.988 554.74C978.792 555.029 978.694 555.356 978.694 555.72C978.694 556.14 978.801 556.476 979.016 556.728C979.24 556.98 979.534 557.181 979.898 557.33C980.262 557.479 980.663 557.605 981.102 557.708C981.541 557.811 981.975 557.923 982.404 558.044C982.833 558.156 983.23 558.305 983.594 558.492C983.958 558.679 984.252 558.931 984.476 559.248C984.7 559.565 984.812 559.976 984.812 560.48C984.812 560.937 984.686 561.367 984.434 561.768C984.182 562.16 983.795 562.477 983.272 562.72C982.759 562.953 982.096 563.07 981.284 563.07ZM989.983 563.056C989.246 563.056 988.593 562.897 988.023 562.58C987.463 562.263 987.02 561.824 986.693 561.264C986.376 560.704 986.217 560.065 986.217 559.346C986.217 558.618 986.367 557.979 986.665 557.428C986.973 556.868 987.393 556.429 987.925 556.112C988.457 555.795 989.055 555.636 989.717 555.636C990.38 555.636 990.973 555.79 991.495 556.098C992.027 556.406 992.443 556.84 992.741 557.4C993.049 557.951 993.203 558.59 993.203 559.318C993.203 559.346 993.199 559.379 993.189 559.416C993.189 559.444 993.189 559.477 993.189 559.514H986.735V558.968H992.811L992.531 559.234C992.541 558.665 992.419 558.156 992.167 557.708C991.925 557.251 991.593 556.896 991.173 556.644C990.753 556.383 990.268 556.252 989.717 556.252C989.176 556.252 988.691 556.383 988.261 556.644C987.841 556.896 987.51 557.251 987.267 557.708C987.025 558.156 986.903 558.669 986.903 559.248V559.374C986.903 559.971 987.034 560.503 987.295 560.97C987.566 561.427 987.935 561.787 988.401 562.048C988.868 562.3 989.4 562.426 989.997 562.426C990.464 562.426 990.898 562.342 991.299 562.174C991.71 562.006 992.055 561.749 992.335 561.404L992.741 561.866C992.424 562.258 992.023 562.557 991.537 562.762C991.061 562.958 990.543 563.056 989.983 563.056ZM999.037 563.056C998.393 563.056 997.809 562.907 997.287 562.608C996.773 562.309 996.363 561.885 996.055 561.334C995.756 560.774 995.607 560.111 995.607 559.346C995.607 558.581 995.756 557.923 996.055 557.372C996.363 556.812 996.773 556.383 997.287 556.084C997.809 555.785 998.393 555.636 999.037 555.636C999.727 555.636 1000.34 555.795 1000.88 556.112C1001.44 556.42 1001.86 556.854 1002.17 557.414C1002.49 557.974 1002.65 558.618 1002.65 559.346C1002.65 560.074 1002.49 560.718 1002.17 561.278C1001.86 561.838 1001.44 562.277 1000.88 562.594C1000.34 562.902 999.727 563.056 999.037 563.056ZM995.369 565.716V555.692H996.041V558.086L995.929 559.36L996.069 560.634V565.716H995.369ZM998.995 562.426C999.555 562.426 1000.06 562.3 1000.51 562.048C1000.95 561.787 1001.3 561.423 1001.56 560.956C1001.82 560.489 1001.95 559.953 1001.95 559.346C1001.95 558.73 1001.82 558.193 1001.56 557.736C1001.3 557.269 1000.95 556.91 1000.51 556.658C1000.06 556.397 999.555 556.266 998.995 556.266C998.435 556.266 997.931 556.397 997.483 556.658C997.044 556.91 996.694 557.269 996.433 557.736C996.181 558.193 996.055 558.73 996.055 559.346C996.055 559.953 996.181 560.489 996.433 560.956C996.694 561.423 997.044 561.787 997.483 562.048C997.931 562.3 998.435 562.426 998.995 562.426ZM1006.94 563.056C1006.3 563.056 1005.81 562.879 1005.46 562.524C1005.12 562.169 1004.96 561.684 1004.96 561.068V554.096H1005.66V560.998C1005.66 561.465 1005.77 561.824 1006.01 562.076C1006.24 562.328 1006.58 562.454 1007.01 562.454C1007.47 562.454 1007.85 562.319 1008.15 562.048L1008.44 562.538C1008.26 562.715 1008.03 562.846 1007.76 562.93C1007.49 563.014 1007.22 563.056 1006.94 563.056ZM1003.61 556.294V555.692H1007.98V556.294H1003.61ZM1013.1 563.056C1012.37 563.056 1011.71 562.897 1011.14 562.58C1010.58 562.263 1010.14 561.824 1009.81 561.264C1009.5 560.704 1009.34 560.065 1009.34 559.346C1009.34 558.618 1009.49 557.979 1009.78 557.428C1010.09 556.868 1010.51 556.429 1011.04 556.112C1011.58 555.795 1012.17 555.636 1012.84 555.636C1013.5 555.636 1014.09 555.79 1014.61 556.098C1015.15 556.406 1015.56 556.84 1015.86 557.4C1016.17 557.951 1016.32 558.59 1016.32 559.318C1016.32 559.346 1016.32 559.379 1016.31 559.416C1016.31 559.444 1016.31 559.477 1016.31 559.514H1009.85V558.968H1015.93L1015.65 559.234C1015.66 558.665 1015.54 558.156 1015.29 557.708C1015.04 557.251 1014.71 556.896 1014.29 556.644C1013.87 556.383 1013.39 556.252 1012.84 556.252C1012.3 556.252 1011.81 556.383 1011.38 556.644C1010.96 556.896 1010.63 557.251 1010.39 557.708C1010.14 558.156 1010.02 558.669 1010.02 559.248V559.374C1010.02 559.971 1010.15 560.503 1010.41 560.97C1010.69 561.427 1011.05 561.787 1011.52 562.048C1011.99 562.3 1012.52 562.426 1013.12 562.426C1013.58 562.426 1014.02 562.342 1014.42 562.174C1014.83 562.006 1015.17 561.749 1015.45 561.404L1015.86 561.866C1015.54 562.258 1015.14 562.557 1014.66 562.762C1014.18 562.958 1013.66 563.056 1013.1 563.056ZM1018.49 563V555.692H1019.16V557.708L1019.06 557.484C1019.28 556.915 1019.64 556.467 1020.14 556.14C1020.64 555.804 1021.25 555.636 1021.96 555.636C1022.69 555.636 1023.3 555.823 1023.79 556.196C1024.3 556.56 1024.62 557.106 1024.75 557.834L1024.51 557.736C1024.7 557.111 1025.07 556.607 1025.61 556.224C1026.16 555.832 1026.81 555.636 1027.59 555.636C1028.18 555.636 1028.68 555.753 1029.11 555.986C1029.55 556.21 1029.89 556.555 1030.14 557.022C1030.38 557.479 1030.5 558.049 1030.5 558.73V563H1029.8V558.786C1029.8 557.965 1029.6 557.339 1029.2 556.91C1028.8 556.481 1028.24 556.266 1027.52 556.266C1026.97 556.266 1026.49 556.383 1026.09 556.616C1025.69 556.849 1025.38 557.176 1025.17 557.596C1024.95 558.016 1024.84 558.52 1024.84 559.108V563H1024.14V558.786C1024.14 557.965 1023.94 557.339 1023.54 556.91C1023.14 556.481 1022.58 556.266 1021.86 556.266C1021.31 556.266 1020.84 556.383 1020.43 556.616C1020.03 556.849 1019.72 557.176 1019.51 557.596C1019.3 558.016 1019.19 558.52 1019.19 559.108V563H1018.49ZM1037.06 563.056C1036.41 563.056 1035.83 562.907 1035.31 562.608C1034.79 562.309 1034.38 561.88 1034.08 561.32C1033.78 560.76 1033.63 560.102 1033.63 559.346C1033.63 558.571 1033.78 557.909 1034.08 557.358C1034.38 556.807 1034.79 556.383 1035.31 556.084C1035.83 555.785 1036.41 555.636 1037.06 555.636C1037.75 555.636 1038.36 555.795 1038.91 556.112C1039.46 556.42 1039.89 556.854 1040.19 557.414C1040.51 557.965 1040.67 558.609 1040.67 559.346C1040.67 560.074 1040.51 560.718 1040.19 561.278C1039.89 561.838 1039.46 562.277 1038.91 562.594C1038.36 562.902 1037.75 563.056 1037.06 563.056ZM1033.39 563V552.612H1034.09V558.058L1033.95 559.332L1034.06 560.606V563H1033.39ZM1037.02 562.426C1037.58 562.426 1038.08 562.3 1038.53 562.048C1038.98 561.787 1039.33 561.423 1039.58 560.956C1039.84 560.489 1039.97 559.953 1039.97 559.346C1039.97 558.73 1039.84 558.193 1039.58 557.736C1039.33 557.269 1038.98 556.91 1038.53 556.658C1038.08 556.397 1037.58 556.266 1037.02 556.266C1036.46 556.266 1035.95 556.397 1035.5 556.658C1035.07 556.91 1034.72 557.269 1034.45 557.736C1034.2 558.193 1034.08 558.73 1034.08 559.346C1034.08 559.953 1034.2 560.489 1034.45 560.956C1034.72 561.423 1035.07 561.787 1035.5 562.048C1035.95 562.3 1036.46 562.426 1037.02 562.426ZM1045.81 563.056C1045.07 563.056 1044.41 562.897 1043.85 562.58C1043.29 562.263 1042.84 561.824 1042.52 561.264C1042.2 560.704 1042.04 560.065 1042.04 559.346C1042.04 558.618 1042.19 557.979 1042.49 557.428C1042.8 556.868 1043.22 556.429 1043.75 556.112C1044.28 555.795 1044.88 555.636 1045.54 555.636C1046.2 555.636 1046.79 555.79 1047.32 556.098C1047.85 556.406 1048.26 556.84 1048.56 557.4C1048.87 557.951 1049.03 558.59 1049.03 559.318C1049.03 559.346 1049.02 559.379 1049.01 559.416C1049.01 559.444 1049.01 559.477 1049.01 559.514H1042.56V558.968H1048.63L1048.35 559.234C1048.36 558.665 1048.24 558.156 1047.99 557.708C1047.75 557.251 1047.42 556.896 1047 556.644C1046.58 556.383 1046.09 556.252 1045.54 556.252C1045 556.252 1044.51 556.383 1044.08 556.644C1043.66 556.896 1043.33 557.251 1043.09 557.708C1042.85 558.156 1042.73 558.669 1042.73 559.248V559.374C1042.73 559.971 1042.86 560.503 1043.12 560.97C1043.39 561.427 1043.76 561.787 1044.22 562.048C1044.69 562.3 1045.22 562.426 1045.82 562.426C1046.29 562.426 1046.72 562.342 1047.12 562.174C1047.53 562.006 1047.88 561.749 1048.16 561.404L1048.56 561.866C1048.25 562.258 1047.84 562.557 1047.36 562.762C1046.88 562.958 1046.37 563.056 1045.81 563.056ZM1051.19 563V555.692H1051.86V557.694L1051.79 557.47C1052 556.882 1052.34 556.429 1052.83 556.112C1053.31 555.795 1053.92 555.636 1054.65 555.636V556.322C1054.62 556.322 1054.59 556.322 1054.57 556.322C1054.54 556.313 1054.51 556.308 1054.48 556.308C1053.67 556.308 1053.03 556.565 1052.58 557.078C1052.12 557.582 1051.89 558.287 1051.89 559.192V563H1051.19Z" fill="white"/>
<path d="M1099.5 541V530.6L1100.41 531.544H1097.13V529.8H1101.58V541H1099.5ZM1108.47 541.16C1107.58 541.16 1106.78 540.936 1106.07 540.488C1105.37 540.04 1104.81 539.389 1104.41 538.536C1104 537.672 1103.8 536.627 1103.8 535.4C1103.8 534.173 1104 533.133 1104.41 532.28C1104.81 531.416 1105.37 530.76 1106.07 530.312C1106.78 529.864 1107.58 529.64 1108.47 529.64C1109.37 529.64 1110.17 529.864 1110.87 530.312C1111.57 530.76 1112.13 531.416 1112.53 532.28C1112.95 533.133 1113.16 534.173 1113.16 535.4C1113.16 536.627 1112.95 537.672 1112.53 538.536C1112.13 539.389 1111.57 540.04 1110.87 540.488C1110.17 540.936 1109.37 541.16 1108.47 541.16ZM1108.47 539.352C1108.99 539.352 1109.45 539.213 1109.83 538.936C1110.21 538.648 1110.51 538.211 1110.73 537.624C1110.95 537.037 1111.06 536.296 1111.06 535.4C1111.06 534.493 1110.95 533.752 1110.73 533.176C1110.51 532.589 1110.21 532.157 1109.83 531.88C1109.45 531.592 1108.99 531.448 1108.47 531.448C1107.97 531.448 1107.52 531.592 1107.13 531.88C1106.74 532.157 1106.44 532.589 1106.21 533.176C1106 533.752 1105.89 534.493 1105.89 535.4C1105.89 536.296 1106 537.037 1106.21 537.624C1106.44 538.211 1106.74 538.648 1107.13 538.936C1107.52 539.213 1107.97 539.352 1108.47 539.352Z" fill="white" fill-opacity="0.5"/>
<path d="M1102.87 563.07C1102.14 563.07 1101.46 562.949 1100.84 562.706C1100.22 562.454 1099.68 562.104 1099.21 561.656C1098.75 561.199 1098.4 560.671 1098.15 560.074C1097.9 559.467 1097.77 558.809 1097.77 558.1C1097.77 557.391 1097.9 556.737 1098.15 556.14C1098.4 555.533 1098.75 555.006 1099.21 554.558C1099.68 554.101 1100.22 553.751 1100.84 553.508C1101.46 553.256 1102.14 553.13 1102.87 553.13C1103.59 553.13 1104.27 553.256 1104.88 553.508C1105.51 553.751 1106.05 554.096 1106.51 554.544C1106.96 554.992 1107.32 555.519 1107.57 556.126C1107.83 556.723 1107.96 557.381 1107.96 558.1C1107.96 558.819 1107.83 559.481 1107.57 560.088C1107.32 560.685 1106.96 561.208 1106.51 561.656C1106.05 562.104 1105.51 562.454 1104.88 562.706C1104.27 562.949 1103.59 563.07 1102.87 563.07ZM1102.87 562.412C1103.49 562.412 1104.07 562.305 1104.6 562.09C1105.13 561.875 1105.6 561.572 1105.99 561.18C1106.38 560.788 1106.68 560.331 1106.9 559.808C1107.12 559.285 1107.23 558.716 1107.23 558.1C1107.23 557.475 1107.12 556.905 1106.9 556.392C1106.68 555.869 1106.38 555.412 1105.99 555.02C1105.6 554.628 1105.13 554.325 1104.6 554.11C1104.07 553.895 1103.49 553.788 1102.87 553.788C1102.24 553.788 1101.66 553.895 1101.13 554.11C1100.6 554.325 1100.13 554.628 1099.73 555.02C1099.34 555.412 1099.03 555.869 1098.81 556.392C1098.59 556.905 1098.48 557.475 1098.48 558.1C1098.48 558.716 1098.59 559.285 1098.81 559.808C1099.03 560.331 1099.34 560.788 1099.73 561.18C1100.13 561.572 1100.6 561.875 1101.13 562.09C1101.66 562.305 1102.24 562.412 1102.87 562.412ZM1113.11 563.056C1112.4 563.056 1111.77 562.897 1111.21 562.58C1110.66 562.263 1110.22 561.824 1109.89 561.264C1109.58 560.704 1109.42 560.065 1109.42 559.346C1109.42 558.618 1109.58 557.974 1109.89 557.414C1110.22 556.854 1110.66 556.42 1111.21 556.112C1111.77 555.795 1112.4 555.636 1113.11 555.636C1113.7 555.636 1114.23 555.748 1114.71 555.972C1115.19 556.196 1115.59 556.532 1115.88 556.98L1115.37 557.358C1115.11 556.985 1114.78 556.709 1114.39 556.532C1113.99 556.355 1113.57 556.266 1113.11 556.266C1112.54 556.266 1112.03 556.397 1111.57 556.658C1111.12 556.91 1110.77 557.269 1110.51 557.736C1110.26 558.193 1110.13 558.73 1110.13 559.346C1110.13 559.962 1110.26 560.503 1110.51 560.97C1110.77 561.427 1111.12 561.787 1111.57 562.048C1112.03 562.3 1112.54 562.426 1113.11 562.426C1113.57 562.426 1113.99 562.337 1114.39 562.16C1114.78 561.983 1115.11 561.707 1115.37 561.334L1115.88 561.712C1115.59 562.16 1115.19 562.496 1114.71 562.72C1114.23 562.944 1113.7 563.056 1113.11 563.056ZM1120.19 563.056C1119.55 563.056 1119.05 562.879 1118.71 562.524C1118.37 562.169 1118.2 561.684 1118.2 561.068V554.096H1118.9V560.998C1118.9 561.465 1119.02 561.824 1119.25 562.076C1119.49 562.328 1119.82 562.454 1120.26 562.454C1120.72 562.454 1121.1 562.319 1121.39 562.048L1121.69 562.538C1121.5 562.715 1121.27 562.846 1121 562.93C1120.74 563.014 1120.47 563.056 1120.19 563.056ZM1116.86 556.294V555.692H1121.23V556.294H1116.86ZM1126.24 563.056C1125.54 563.056 1124.91 562.897 1124.36 562.58C1123.82 562.263 1123.39 561.824 1123.06 561.264C1122.74 560.704 1122.58 560.065 1122.58 559.346C1122.58 558.618 1122.74 557.979 1123.06 557.428C1123.39 556.868 1123.82 556.429 1124.36 556.112C1124.91 555.795 1125.54 555.636 1126.24 555.636C1126.94 555.636 1127.56 555.795 1128.11 556.112C1128.66 556.429 1129.1 556.868 1129.41 557.428C1129.73 557.979 1129.89 558.618 1129.89 559.346C1129.89 560.065 1129.73 560.704 1129.41 561.264C1129.1 561.824 1128.66 562.263 1128.11 562.58C1127.56 562.897 1126.94 563.056 1126.24 563.056ZM1126.24 562.426C1126.8 562.426 1127.3 562.3 1127.75 562.048C1128.2 561.787 1128.55 561.423 1128.8 560.956C1129.05 560.489 1129.18 559.953 1129.18 559.346C1129.18 558.73 1129.05 558.193 1128.8 557.736C1128.55 557.269 1128.2 556.91 1127.75 556.658C1127.3 556.397 1126.8 556.266 1126.24 556.266C1125.68 556.266 1125.17 556.397 1124.72 556.658C1124.29 556.91 1123.94 557.269 1123.67 557.736C1123.42 558.193 1123.3 558.73 1123.3 559.346C1123.3 559.953 1123.42 560.489 1123.67 560.956C1123.94 561.423 1124.29 561.787 1124.72 562.048C1125.17 562.3 1125.68 562.426 1126.24 562.426ZM1135.73 563.056C1135.09 563.056 1134.5 562.907 1133.98 562.608C1133.47 562.309 1133.06 561.88 1132.75 561.32C1132.45 560.76 1132.3 560.102 1132.3 559.346C1132.3 558.571 1132.45 557.909 1132.75 557.358C1133.06 556.807 1133.47 556.383 1133.98 556.084C1134.5 555.785 1135.09 555.636 1135.73 555.636C1136.42 555.636 1137.04 555.795 1137.58 556.112C1138.13 556.42 1138.56 556.854 1138.87 557.414C1139.18 557.965 1139.34 558.609 1139.34 559.346C1139.34 560.074 1139.18 560.718 1138.87 561.278C1138.56 561.838 1138.13 562.277 1137.58 562.594C1137.04 562.902 1136.42 563.056 1135.73 563.056ZM1132.06 563V552.612H1132.76V558.058L1132.62 559.332L1132.73 560.606V563H1132.06ZM1135.69 562.426C1136.25 562.426 1136.75 562.3 1137.2 562.048C1137.65 561.787 1138 561.423 1138.25 560.956C1138.51 560.489 1138.64 559.953 1138.64 559.346C1138.64 558.73 1138.51 558.193 1138.25 557.736C1138 557.269 1137.65 556.91 1137.2 556.658C1136.75 556.397 1136.25 556.266 1135.69 556.266C1135.13 556.266 1134.62 556.397 1134.18 556.658C1133.74 556.91 1133.39 557.269 1133.13 557.736C1132.87 558.193 1132.75 558.73 1132.75 559.346C1132.75 559.953 1132.87 560.489 1133.13 560.956C1133.39 561.423 1133.74 561.787 1134.18 562.048C1134.62 562.3 1135.13 562.426 1135.69 562.426ZM1144.48 563.056C1143.74 563.056 1143.09 562.897 1142.52 562.58C1141.96 562.263 1141.51 561.824 1141.19 561.264C1140.87 560.704 1140.71 560.065 1140.71 559.346C1140.71 558.618 1140.86 557.979 1141.16 557.428C1141.47 556.868 1141.89 556.429 1142.42 556.112C1142.95 555.795 1143.55 555.636 1144.21 555.636C1144.87 555.636 1145.47 555.79 1145.99 556.098C1146.52 556.406 1146.94 556.84 1147.24 557.4C1147.54 557.951 1147.7 558.59 1147.7 559.318C1147.7 559.346 1147.69 559.379 1147.68 559.416C1147.68 559.444 1147.68 559.477 1147.68 559.514H1141.23V558.968H1147.31L1147.03 559.234C1147.03 558.665 1146.91 558.156 1146.66 557.708C1146.42 557.251 1146.09 556.896 1145.67 556.644C1145.25 556.383 1144.76 556.252 1144.21 556.252C1143.67 556.252 1143.18 556.383 1142.76 556.644C1142.34 556.896 1142 557.251 1141.76 557.708C1141.52 558.156 1141.4 558.669 1141.4 559.248V559.374C1141.4 559.971 1141.53 560.503 1141.79 560.97C1142.06 561.427 1142.43 561.787 1142.9 562.048C1143.36 562.3 1143.89 562.426 1144.49 562.426C1144.96 562.426 1145.39 562.342 1145.79 562.174C1146.2 562.006 1146.55 561.749 1146.83 561.404L1147.24 561.866C1146.92 562.258 1146.52 562.557 1146.03 562.762C1145.56 562.958 1145.04 563.056 1144.48 563.056ZM1149.86 563V555.692H1150.53V557.694L1150.46 557.47C1150.67 556.882 1151.02 556.429 1151.5 556.112C1151.99 555.795 1152.59 555.636 1153.32 555.636V556.322C1153.29 556.322 1153.26 556.322 1153.24 556.322C1153.21 556.313 1153.18 556.308 1153.15 556.308C1152.34 556.308 1151.71 556.565 1151.25 557.078C1150.79 557.582 1150.56 558.287 1150.56 559.192V563H1149.86Z" fill="white"/>
<path d="M1219.5 541V530.6L1220.41 531.544H1217.13V529.8H1221.58V541H1219.5ZM1225.59 541V530.6L1226.5 531.544H1223.22V529.8H1227.67V541H1225.59Z" fill="white" fill-opacity="0.5"/>
<path d="M1218.71 563V553.2H1219.31L1226.3 562.118H1225.97V553.2H1226.69V563H1226.1L1219.1 554.082H1219.42V563H1218.71ZM1232.74 563.056C1232.04 563.056 1231.42 562.897 1230.87 562.58C1230.33 562.263 1229.89 561.824 1229.56 561.264C1229.25 560.704 1229.09 560.065 1229.09 559.346C1229.09 558.618 1229.25 557.979 1229.56 557.428C1229.89 556.868 1230.33 556.429 1230.87 556.112C1231.42 555.795 1232.04 555.636 1232.74 555.636C1233.44 555.636 1234.07 555.795 1234.62 556.112C1235.17 556.429 1235.6 556.868 1235.92 557.428C1236.24 557.979 1236.4 558.618 1236.4 559.346C1236.4 560.065 1236.24 560.704 1235.92 561.264C1235.6 561.824 1235.17 562.263 1234.62 562.58C1234.07 562.897 1233.44 563.056 1232.74 563.056ZM1232.74 562.426C1233.3 562.426 1233.81 562.3 1234.25 562.048C1234.7 561.787 1235.05 561.423 1235.3 560.956C1235.56 560.489 1235.68 559.953 1235.68 559.346C1235.68 558.73 1235.56 558.193 1235.3 557.736C1235.05 557.269 1234.7 556.91 1234.25 556.658C1233.81 556.397 1233.3 556.266 1232.74 556.266C1232.18 556.266 1231.68 556.397 1231.23 556.658C1230.79 556.91 1230.44 557.269 1230.18 557.736C1229.93 558.193 1229.8 558.73 1229.8 559.346C1229.8 559.953 1229.93 560.489 1230.18 560.956C1230.44 561.423 1230.79 561.787 1231.23 562.048C1231.68 562.3 1232.18 562.426 1232.74 562.426ZM1240.21 563L1236.92 555.692H1237.66L1240.74 562.608H1240.41L1243.51 555.692H1244.23L1240.92 563H1240.21ZM1248.52 563.056C1247.78 563.056 1247.13 562.897 1246.56 562.58C1246 562.263 1245.56 561.824 1245.23 561.264C1244.91 560.704 1244.76 560.065 1244.76 559.346C1244.76 558.618 1244.91 557.979 1245.2 557.428C1245.51 556.868 1245.93 556.429 1246.46 556.112C1247 555.795 1247.59 555.636 1248.26 555.636C1248.92 555.636 1249.51 555.79 1250.03 556.098C1250.57 556.406 1250.98 556.84 1251.28 557.4C1251.59 557.951 1251.74 558.59 1251.74 559.318C1251.74 559.346 1251.74 559.379 1251.73 559.416C1251.73 559.444 1251.73 559.477 1251.73 559.514H1245.27V558.968H1251.35L1251.07 559.234C1251.08 558.665 1250.96 558.156 1250.71 557.708C1250.46 557.251 1250.13 556.896 1249.71 556.644C1249.29 556.383 1248.81 556.252 1248.26 556.252C1247.71 556.252 1247.23 556.383 1246.8 556.644C1246.38 556.896 1246.05 557.251 1245.81 557.708C1245.56 558.156 1245.44 558.669 1245.44 559.248V559.374C1245.44 559.971 1245.57 560.503 1245.83 560.97C1246.1 561.427 1246.47 561.787 1246.94 562.048C1247.41 562.3 1247.94 562.426 1248.54 562.426C1249 562.426 1249.44 562.342 1249.84 562.174C1250.25 562.006 1250.59 561.749 1250.87 561.404L1251.28 561.866C1250.96 562.258 1250.56 562.557 1250.08 562.762C1249.6 562.958 1249.08 563.056 1248.52 563.056ZM1253.91 563V555.692H1254.58V557.708L1254.48 557.484C1254.7 556.915 1255.06 556.467 1255.56 556.14C1256.06 555.804 1256.67 555.636 1257.38 555.636C1258.11 555.636 1258.72 555.823 1259.21 556.196C1259.72 556.56 1260.04 557.106 1260.17 557.834L1259.93 557.736C1260.12 557.111 1260.49 556.607 1261.03 556.224C1261.58 555.832 1262.23 555.636 1263.01 555.636C1263.6 555.636 1264.1 555.753 1264.53 555.986C1264.97 556.21 1265.31 556.555 1265.56 557.022C1265.8 557.479 1265.92 558.049 1265.92 558.73V563H1265.22V558.786C1265.22 557.965 1265.02 557.339 1264.62 556.91C1264.22 556.481 1263.66 556.266 1262.94 556.266C1262.39 556.266 1261.91 556.383 1261.51 556.616C1261.11 556.849 1260.8 557.176 1260.59 557.596C1260.37 558.016 1260.26 558.52 1260.26 559.108V563H1259.56V558.786C1259.56 557.965 1259.36 557.339 1258.96 556.91C1258.56 556.481 1258 556.266 1257.28 556.266C1256.73 556.266 1256.26 556.383 1255.85 556.616C1255.45 556.849 1255.14 557.176 1254.93 557.596C1254.72 558.016 1254.61 558.52 1254.61 559.108V563H1253.91ZM1272.48 563.056C1271.83 563.056 1271.25 562.907 1270.73 562.608C1270.21 562.309 1269.8 561.88 1269.5 561.32C1269.2 560.76 1269.05 560.102 1269.05 559.346C1269.05 558.571 1269.2 557.909 1269.5 557.358C1269.8 556.807 1270.21 556.383 1270.73 556.084C1271.25 555.785 1271.83 555.636 1272.48 555.636C1273.17 555.636 1273.78 555.795 1274.33 556.112C1274.88 556.42 1275.31 556.854 1275.61 557.414C1275.93 557.965 1276.09 558.609 1276.09 559.346C1276.09 560.074 1275.93 560.718 1275.61 561.278C1275.31 561.838 1274.88 562.277 1274.33 562.594C1273.78 562.902 1273.17 563.056 1272.48 563.056ZM1268.81 563V552.612H1269.51V558.058L1269.37 559.332L1269.48 560.606V563H1268.81ZM1272.44 562.426C1273 562.426 1273.5 562.3 1273.95 562.048C1274.4 561.787 1274.75 561.423 1275 560.956C1275.26 560.489 1275.39 559.953 1275.39 559.346C1275.39 558.73 1275.26 558.193 1275 557.736C1274.75 557.269 1274.4 556.91 1273.95 556.658C1273.5 556.397 1273 556.266 1272.44 556.266C1271.88 556.266 1271.37 556.397 1270.92 556.658C1270.49 556.91 1270.14 557.269 1269.87 557.736C1269.62 558.193 1269.5 558.73 1269.5 559.346C1269.5 559.953 1269.62 560.489 1269.87 560.956C1270.14 561.423 1270.49 561.787 1270.92 562.048C1271.37 562.3 1271.88 562.426 1272.44 562.426ZM1281.23 563.056C1280.49 563.056 1279.83 562.897 1279.27 562.58C1278.71 562.263 1278.26 561.824 1277.94 561.264C1277.62 560.704 1277.46 560.065 1277.46 559.346C1277.46 558.618 1277.61 557.979 1277.91 557.428C1278.22 556.868 1278.64 556.429 1279.17 556.112C1279.7 555.795 1280.3 555.636 1280.96 555.636C1281.62 555.636 1282.21 555.79 1282.74 556.098C1283.27 556.406 1283.68 556.84 1283.98 557.4C1284.29 557.951 1284.45 558.59 1284.45 559.318C1284.45 559.346 1284.44 559.379 1284.43 559.416C1284.43 559.444 1284.43 559.477 1284.43 559.514H1277.98V558.968H1284.05L1283.77 559.234C1283.78 558.665 1283.66 558.156 1283.41 557.708C1283.17 557.251 1282.84 556.896 1282.42 556.644C1282 556.383 1281.51 556.252 1280.96 556.252C1280.42 556.252 1279.93 556.383 1279.5 556.644C1279.08 556.896 1278.75 557.251 1278.51 557.708C1278.27 558.156 1278.15 558.669 1278.15 559.248V559.374C1278.15 559.971 1278.28 560.503 1278.54 560.97C1278.81 561.427 1279.18 561.787 1279.64 562.048C1280.11 562.3 1280.64 562.426 1281.24 562.426C1281.71 562.426 1282.14 562.342 1282.54 562.174C1282.95 562.006 1283.3 561.749 1283.58 561.404L1283.98 561.866C1283.67 562.258 1283.26 562.557 1282.78 562.762C1282.3 562.958 1281.79 563.056 1281.23 563.056ZM1286.61 563V555.692H1287.28V557.694L1287.21 557.47C1287.42 556.882 1287.76 556.429 1288.25 556.112C1288.73 555.795 1289.34 555.636 1290.07 555.636V556.322C1290.04 556.322 1290.01 556.322 1289.98 556.322C1289.96 556.313 1289.93 556.308 1289.9 556.308C1289.09 556.308 1288.45 556.565 1288 557.078C1287.54 557.582 1287.31 558.287 1287.31 559.192V563H1286.61Z" fill="white"/>
<path d="M1339.5 541V530.6L1340.41 531.544H1337.13V529.8H1341.58V541H1339.5ZM1343.65 541V539.608L1348.1 535.384C1348.48 535.032 1348.75 534.723 1348.93 534.456C1349.12 534.189 1349.23 533.944 1349.29 533.72C1349.35 533.485 1349.38 533.267 1349.38 533.064C1349.38 532.552 1349.21 532.157 1348.85 531.88C1348.5 531.592 1347.98 531.448 1347.3 531.448C1346.76 531.448 1346.26 531.544 1345.81 531.736C1345.38 531.928 1345 532.221 1344.68 532.616L1343.22 531.496C1343.66 530.909 1344.25 530.456 1344.98 530.136C1345.73 529.805 1346.56 529.64 1347.48 529.64C1348.29 529.64 1348.99 529.773 1349.59 530.04C1350.2 530.296 1350.66 530.664 1350.98 531.144C1351.31 531.624 1351.48 532.195 1351.48 532.856C1351.48 533.219 1351.43 533.581 1351.33 533.944C1351.24 534.296 1351.06 534.669 1350.79 535.064C1350.52 535.459 1350.13 535.901 1349.62 536.392L1345.8 540.024L1345.37 539.24H1351.91V541H1343.65Z" fill="white" fill-opacity="0.5"/>
<path d="M1338.71 563V553.2H1342.59C1343.62 553.2 1344.53 553.41 1345.32 553.83C1346.1 554.25 1346.71 554.829 1347.14 555.566C1347.57 556.303 1347.79 557.148 1347.79 558.1C1347.79 559.052 1347.57 559.897 1347.14 560.634C1346.71 561.371 1346.1 561.95 1345.32 562.37C1344.53 562.79 1343.62 563 1342.59 563H1338.71ZM1339.42 562.356H1342.53C1343.45 562.356 1344.26 562.174 1344.94 561.81C1345.62 561.446 1346.15 560.947 1346.52 560.312C1346.89 559.668 1347.08 558.931 1347.08 558.1C1347.08 557.269 1346.89 556.537 1346.52 555.902C1346.15 555.258 1345.62 554.754 1344.94 554.39C1344.26 554.026 1343.45 553.844 1342.53 553.844H1339.42V562.356ZM1353.02 563.056C1352.28 563.056 1351.63 562.897 1351.06 562.58C1350.5 562.263 1350.06 561.824 1349.73 561.264C1349.41 560.704 1349.25 560.065 1349.25 559.346C1349.25 558.618 1349.4 557.979 1349.7 557.428C1350.01 556.868 1350.43 556.429 1350.96 556.112C1351.49 555.795 1352.09 555.636 1352.75 555.636C1353.42 555.636 1354.01 555.79 1354.53 556.098C1355.06 556.406 1355.48 556.84 1355.78 557.4C1356.08 557.951 1356.24 558.59 1356.24 559.318C1356.24 559.346 1356.23 559.379 1356.22 559.416C1356.22 559.444 1356.22 559.477 1356.22 559.514H1349.77V558.968H1355.85L1355.57 559.234C1355.58 558.665 1355.45 558.156 1355.2 557.708C1354.96 557.251 1354.63 556.896 1354.21 556.644C1353.79 556.383 1353.3 556.252 1352.75 556.252C1352.21 556.252 1351.73 556.383 1351.3 556.644C1350.88 556.896 1350.55 557.251 1350.3 557.708C1350.06 558.156 1349.94 558.669 1349.94 559.248V559.374C1349.94 559.971 1350.07 560.503 1350.33 560.97C1350.6 561.427 1350.97 561.787 1351.44 562.048C1351.9 562.3 1352.44 562.426 1353.03 562.426C1353.5 562.426 1353.93 562.342 1354.33 562.174C1354.75 562.006 1355.09 561.749 1355.37 561.404L1355.78 561.866C1355.46 562.258 1355.06 562.557 1354.57 562.762C1354.1 562.958 1353.58 563.056 1353.02 563.056ZM1361.3 563.056C1360.59 563.056 1359.96 562.897 1359.4 562.58C1358.85 562.263 1358.41 561.824 1358.08 561.264C1357.76 560.704 1357.61 560.065 1357.61 559.346C1357.61 558.618 1357.76 557.974 1358.08 557.414C1358.41 556.854 1358.85 556.42 1359.4 556.112C1359.96 555.795 1360.59 555.636 1361.3 555.636C1361.89 555.636 1362.42 555.748 1362.9 555.972C1363.38 556.196 1363.78 556.532 1364.07 556.98L1363.56 557.358C1363.29 556.985 1362.97 556.709 1362.58 556.532C1362.18 556.355 1361.76 556.266 1361.3 556.266C1360.73 556.266 1360.22 556.397 1359.76 556.658C1359.31 556.91 1358.96 557.269 1358.7 557.736C1358.45 558.193 1358.32 558.73 1358.32 559.346C1358.32 559.962 1358.45 560.503 1358.7 560.97C1358.96 561.427 1359.31 561.787 1359.76 562.048C1360.22 562.3 1360.73 562.426 1361.3 562.426C1361.76 562.426 1362.18 562.337 1362.58 562.16C1362.97 561.983 1363.29 561.707 1363.56 561.334L1364.07 561.712C1363.78 562.16 1363.38 562.496 1362.9 562.72C1362.42 562.944 1361.89 563.056 1361.3 563.056ZM1369.01 563.056C1368.28 563.056 1367.62 562.897 1367.05 562.58C1366.49 562.263 1366.05 561.824 1365.72 561.264C1365.41 560.704 1365.25 560.065 1365.25 559.346C1365.25 558.618 1365.4 557.979 1365.7 557.428C1366 556.868 1366.42 556.429 1366.96 556.112C1367.49 555.795 1368.09 555.636 1368.75 555.636C1369.41 555.636 1370 555.79 1370.53 556.098C1371.06 556.406 1371.47 556.84 1371.77 557.4C1372.08 557.951 1372.23 558.59 1372.23 559.318C1372.23 559.346 1372.23 559.379 1372.22 559.416C1372.22 559.444 1372.22 559.477 1372.22 559.514H1365.77V558.968H1371.84L1371.56 559.234C1371.57 558.665 1371.45 558.156 1371.2 557.708C1370.96 557.251 1370.62 556.896 1370.2 556.644C1369.78 556.383 1369.3 556.252 1368.75 556.252C1368.21 556.252 1367.72 556.383 1367.29 556.644C1366.87 556.896 1366.54 557.251 1366.3 557.708C1366.06 558.156 1365.93 558.669 1365.93 559.248V559.374C1365.93 559.971 1366.07 560.503 1366.33 560.97C1366.6 561.427 1366.97 561.787 1367.43 562.048C1367.9 562.3 1368.43 562.426 1369.03 562.426C1369.5 562.426 1369.93 562.342 1370.33 562.174C1370.74 562.006 1371.09 561.749 1371.37 561.404L1371.77 561.866C1371.46 562.258 1371.05 562.557 1370.57 562.762C1370.09 562.958 1369.57 563.056 1369.01 563.056ZM1374.4 563V555.692H1375.07V557.708L1374.97 557.484C1375.19 556.915 1375.55 556.467 1376.05 556.14C1376.56 555.804 1377.16 555.636 1377.87 555.636C1378.6 555.636 1379.21 555.823 1379.71 556.196C1380.21 556.56 1380.53 557.106 1380.66 557.834L1380.42 557.736C1380.62 557.111 1380.98 556.607 1381.53 556.224C1382.07 555.832 1382.73 555.636 1383.5 555.636C1384.09 555.636 1384.6 555.753 1385.03 555.986C1385.46 556.21 1385.81 556.555 1386.05 557.022C1386.29 557.479 1386.41 558.049 1386.41 558.73V563H1385.71V558.786C1385.71 557.965 1385.51 557.339 1385.11 556.91C1384.71 556.481 1384.15 556.266 1383.43 556.266C1382.88 556.266 1382.4 556.383 1382 556.616C1381.6 556.849 1381.29 557.176 1381.08 557.596C1380.86 558.016 1380.76 558.52 1380.76 559.108V563H1380.06V558.786C1380.06 557.965 1379.86 557.339 1379.45 556.91C1379.05 556.481 1378.49 556.266 1377.77 556.266C1377.22 556.266 1376.75 556.383 1376.35 556.616C1375.94 556.849 1375.64 557.176 1375.42 557.596C1375.21 558.016 1375.1 558.52 1375.1 559.108V563H1374.4ZM1392.97 563.056C1392.33 563.056 1391.74 562.907 1391.22 562.608C1390.71 562.309 1390.3 561.88 1389.99 561.32C1389.69 560.76 1389.54 560.102 1389.54 559.346C1389.54 558.571 1389.69 557.909 1389.99 557.358C1390.3 556.807 1390.71 556.383 1391.22 556.084C1391.74 555.785 1392.33 555.636 1392.97 555.636C1393.66 555.636 1394.28 555.795 1394.82 556.112C1395.37 556.42 1395.8 556.854 1396.11 557.414C1396.42 557.965 1396.58 558.609 1396.58 559.346C1396.58 560.074 1396.42 560.718 1396.11 561.278C1395.8 561.838 1395.37 562.277 1394.82 562.594C1394.28 562.902 1393.66 563.056 1392.97 563.056ZM1389.3 563V552.612H1390V558.058L1389.86 559.332L1389.97 560.606V563H1389.3ZM1392.93 562.426C1393.49 562.426 1393.99 562.3 1394.44 562.048C1394.89 561.787 1395.24 561.423 1395.49 560.956C1395.75 560.489 1395.88 559.953 1395.88 559.346C1395.88 558.73 1395.75 558.193 1395.49 557.736C1395.24 557.269 1394.89 556.91 1394.44 556.658C1393.99 556.397 1393.49 556.266 1392.93 556.266C1392.37 556.266 1391.86 556.397 1391.42 556.658C1390.98 556.91 1390.63 557.269 1390.37 557.736C1390.11 558.193 1389.99 558.73 1389.99 559.346C1389.99 559.953 1390.11 560.489 1390.37 560.956C1390.63 561.423 1390.98 561.787 1391.42 562.048C1391.86 562.3 1392.37 562.426 1392.93 562.426ZM1401.72 563.056C1400.98 563.056 1400.33 562.897 1399.76 562.58C1399.2 562.263 1398.75 561.824 1398.43 561.264C1398.11 560.704 1397.95 560.065 1397.95 559.346C1397.95 558.618 1398.1 557.979 1398.4 557.428C1398.71 556.868 1399.13 556.429 1399.66 556.112C1400.19 555.795 1400.79 555.636 1401.45 555.636C1402.11 555.636 1402.71 555.79 1403.23 556.098C1403.76 556.406 1404.18 556.84 1404.48 557.4C1404.78 557.951 1404.94 558.59 1404.94 559.318C1404.94 559.346 1404.93 559.379 1404.92 559.416C1404.92 559.444 1404.92 559.477 1404.92 559.514H1398.47V558.968H1404.55L1404.27 559.234C1404.27 558.665 1404.15 558.156 1403.9 557.708C1403.66 557.251 1403.33 556.896 1402.91 556.644C1402.49 556.383 1402 556.252 1401.45 556.252C1400.91 556.252 1400.42 556.383 1400 556.644C1399.58 556.896 1399.24 557.251 1399 557.708C1398.76 558.156 1398.64 558.669 1398.64 559.248V559.374C1398.64 559.971 1398.77 560.503 1399.03 560.97C1399.3 561.427 1399.67 561.787 1400.14 562.048C1400.6 562.3 1401.13 562.426 1401.73 562.426C1402.2 562.426 1402.63 562.342 1403.03 562.174C1403.44 562.006 1403.79 561.749 1404.07 561.404L1404.48 561.866C1404.16 562.258 1403.76 562.557 1403.27 562.762C1402.8 562.958 1402.28 563.056 1401.72 563.056ZM1407.1 563V555.692H1407.78V557.694L1407.71 557.47C1407.91 556.882 1408.26 556.429 1408.74 556.112C1409.23 555.795 1409.83 555.636 1410.56 555.636V556.322C1410.53 556.322 1410.51 556.322 1410.48 556.322C1410.45 556.313 1410.42 556.308 1410.39 556.308C1409.58 556.308 1408.95 556.565 1408.49 557.078C1408.03 557.582 1407.8 558.287 1407.8 559.192V563H1407.1Z" fill="white"/>
<rect x="120" y="1" width="1" height="768" fill="white" fill-opacity="0.32"/>
<rect x="240" y="1" width="1" height="768" fill="white" fill-opacity="0.32"/>
<rect x="360" y="1" width="1" height="768" fill="white" fill-opacity="0.32"/>
<rect x="480" y="1" width="1" height="768" fill="white" fill-opacity="0.32"/>
<rect x="600" y="1" width="1" height="768" fill="white" fill-opacity="0.32"/>
<rect x="720" y="1" width="1" height="768" fill="white" fill-opacity="0.32"/>
<rect x="840" y="1" width="1" height="768" fill="white" fill-opacity="0.32"/>
<rect x="960" y="1" width="1" height="768" fill="white" fill-opacity="0.32"/>
<rect x="1080" y="1" width="1" height="768" fill="white" fill-opacity="0.32"/>
<rect x="1200" y="1" width="1" height="768" fill="white" fill-opacity="0.32"/>
<rect x="1320" y="1" width="1" height="768" fill="white" fill-opacity="0.32"/>
<rect y="415" width="1440" height="1" fill="white" fill-opacity="0.16"/>
<rect y="328" width="1440" height="1" fill="white" fill-opacity="0.16"/>
<rect y="241" width="1440" height="1" fill="white" fill-opacity="0.16"/>
<rect y="154" width="1440" height="1" fill="white" fill-opacity="0.16"/>
<rect y="67" width="1440" height="1" fill="white" fill-opacity="0.16"/>
<rect y="502" width="1440" height="1" fill="white" fill-opacity="0.16"/>
</g>
</g>
<defs>
<clipPath id="clip0_3012_17">
<rect width="1440" height="589" fill="white"/>
</clipPath>
</defs>
</svg>
