<svg width="32" height="32" viewBox="0 0 32 32" fill="none" xmlns="http://www.w3.org/2000/svg">
<path d="M29.3337 22.6699C29.3323 26.4978 26.6425 29.6971 23.0499 30.4825L22.1993 27.9305C23.8046 27.6685 25.169 26.6898 25.9535 25.3337H22.667C21.1942 25.3337 20.0003 24.1398 20.0003 22.667V17.3337C20.0003 15.8609 21.1942 14.667 22.667 14.667H26.5845C25.9283 9.40525 21.4398 5.33366 16.0003 5.33366C10.5608 5.33366 6.07231 9.40525 5.41618 14.667H9.33366C10.8064 14.667 12.0003 15.8609 12.0003 17.3337V22.667C12.0003 24.1398 10.8064 25.3337 9.33366 25.3337H5.33366C3.8609 25.3337 2.66699 24.1398 2.66699 22.667V16.0003C2.66699 8.63653 8.63653 2.66699 16.0003 2.66699C23.3641 2.66699 29.3337 8.63653 29.3337 16.0003V17.3319V17.3337V22.667V22.6699ZM26.667 22.667V17.3337H22.667V22.667H26.667ZM5.33366 17.3337V22.667H9.33366V17.3337H5.33366Z" fill="#44BD32"/>
</svg>
