<svg width="1128" height="592" viewBox="0 0 1128 592" fill="none" xmlns="http://www.w3.org/2000/svg">
<rect width="1128" height="592" fill="#44BD32"/>
<path d="M470.875 283.469L497.625 256.719L571.188 330.282L618 283.469L658.125 323.594V201.875H470.875V283.469ZM470.875 321.299V389.125H512.344L552.273 349.197L497.625 294.549L470.875 321.299ZM550.174 389.125H658.125V361.424L618 321.299L550.174 389.125ZM457.5 175.125H671.5C678.887 175.125 684.875 181.113 684.875 188.5V402.5C684.875 409.887 678.887 415.875 671.5 415.875H457.5C450.113 415.875 444.125 409.887 444.125 402.5V188.5C444.125 181.113 450.113 175.125 457.5 175.125ZM611.312 268.75C600.233 268.75 591.25 259.768 591.25 248.688C591.25 237.607 600.233 228.625 611.312 228.625C622.392 228.625 631.375 237.607 631.375 248.688C631.375 259.768 622.392 268.75 611.312 268.75Z" fill="white"/>
</svg>
