<svg width="115" height="32" viewBox="0 0 115 32" fill="none" xmlns="http://www.w3.org/2000/svg">
<path d="M12.9942 32C10.4688 32 8.03146 31.6923 5.68222 31.0769C3.36235 30.4322 1.46827 29.6117 0 28.6154L2.86314 22.1978C4.24331 23.0769 5.82905 23.8095 7.62035 24.3956C9.44101 24.9524 11.247 25.2308 13.0383 25.2308C14.2423 25.2308 15.2113 25.1282 15.9455 24.9231C16.6796 24.6886 17.2082 24.3956 17.5312 24.044C17.8836 23.663 18.0598 23.2234 18.0598 22.7253C18.0598 22.022 17.7368 21.4652 17.0907 21.0549C16.4447 20.6447 15.6078 20.3077 14.58 20.044C13.5522 19.7802 12.4069 19.5165 11.1442 19.2527C9.91085 18.989 8.66282 18.652 7.4001 18.2418C6.16675 17.8315 5.03618 17.304 4.00839 16.6593C2.9806 15.9853 2.14368 15.1209 1.49764 14.0659C0.851599 12.9817 0.528579 11.619 0.528579 9.97802C0.528579 8.13187 1.02779 6.46154 2.02622 4.96703C3.05401 3.47253 4.58102 2.27106 6.60724 1.36264C8.63346 0.454213 11.1589 0 14.1835 0C16.2098 0 18.1919 0.234433 20.13 0.703298C22.0975 1.14286 23.8448 1.8022 25.3718 2.68132L22.6848 9.14286C21.2166 8.35165 19.763 7.76557 18.3241 7.38462C16.8852 6.97436 15.4903 6.76923 14.1395 6.76923C12.9355 6.76923 11.9664 6.9011 11.2323 7.16484C10.4982 7.39927 9.96958 7.72161 9.64656 8.13187C9.32354 8.54212 9.16203 9.01099 9.16203 9.53846C9.16203 10.2125 9.47037 10.7546 10.087 11.1648C10.7331 11.5458 11.57 11.8681 12.5978 12.1319C13.655 12.3663 14.8002 12.6154 16.0336 12.8791C17.2963 13.1429 18.5443 13.4799 19.7777 13.8901C21.0404 14.2711 22.1856 14.7985 23.2134 15.4725C24.2412 16.1172 25.0634 16.9817 25.6801 18.0659C26.3262 19.1209 26.6492 20.4542 26.6492 22.0659C26.6492 23.8535 26.1353 25.5092 25.1075 27.033C24.1091 28.5275 22.5967 29.7289 20.5705 30.6374C18.5737 31.5458 16.0482 32 12.9942 32Z" fill="#171717"/>
<path d="M38.7828 14.1099H53.0103V20.8352H38.7828V14.1099ZM39.3994 31.3846H30.6779V0.615384H54.8604V7.34066H39.3994V31.3846Z" fill="#171717"/>
<path d="M65.7176 31.3846V7.51648H56.2472V0.615384H83.8654V7.51648H74.4391V31.3846H65.7176Z" fill="#171717"/>
<path d="M87.1147 31.3846V0.615384H101.21C104.029 0.615384 106.452 1.0696 108.478 1.97802C110.534 2.88645 112.119 4.20513 113.235 5.93406C114.351 7.6337 114.909 9.65568 114.909 12C114.909 14.315 114.351 16.3223 113.235 18.022C112.119 19.7216 110.534 21.0403 108.478 21.978C106.452 22.8864 104.029 23.3407 101.21 23.3407H91.96L95.8362 19.5604V31.3846H87.1147ZM95.8362 20.4835L91.96 16.4835H100.682C102.502 16.4835 103.853 16.0879 104.734 15.2967C105.644 14.5055 106.099 13.4066 106.099 12C106.099 10.5641 105.644 9.45055 104.734 8.65934C103.853 7.86813 102.502 7.47253 100.682 7.47253H91.96L95.8362 3.47253V20.4835Z" fill="#171717"/>
</svg>
